<svg xmlns="http://www.w3.org/2000/svg" width="40" height="40" viewBox="0 0 40 40">
  <g fill="none" fill-rule="evenodd" transform="translate(1 5)">
    <path fill="#009245" d="M23.7639057,0.0811200057 C21.9773456,-0.0750400053 19.9738254,0.613280043 18.3917453,2.12336015 C17.4160652,3.05456022 16.7463052,4.15984029 16.3920652,5.29040037 L16.3111052,5.29040037 C16.0112651,4.56976032 15.5447051,3.87664027 14.9159051,3.27600023 C13.677825,2.09488015 12.1111049,1.55632011 10.7133448,1.67856012 C10.6563848,3.08048022 11.2672648,4.62064033 12.5053449,5.80176041 C13.489345,6.74096048 14.680705,7.27216051 15.8301451,7.38992052 L15.8301451,24.2123217 L17.0611852,24.2123217 L17.0611852,7.39760052 C18.5799053,7.28144052 20.1693454,6.59664047 21.4733455,5.35248038 C23.0554256,3.84208027 23.8368657,1.87344013 23.7639057,0.0811200057"/>
    <path stroke="#000" stroke-width=".5" d="M23.7639057,0.0811200057 C21.9773456,-0.0750400053 19.9738254,0.613280043 18.3917453,2.12336015 C17.4160652,3.05456022 16.7463052,4.15984029 16.3920652,5.29040037 L16.3111052,5.29040037 C16.0112651,4.56976032 15.5447051,3.87664027 14.9159051,3.27600023 C13.677825,2.09488015 12.1111049,1.55632011 10.7133448,1.67856012 C10.6563848,3.08048022 11.2672648,4.62064033 12.5053449,5.80176041 C13.489345,6.74096048 14.680705,7.27216051 15.8301451,7.38992052 L15.8301451,24.2123217 L17.0611852,24.2123217 L17.0611852,7.39760052 C18.5799053,7.28144052 20.1693454,6.59664047 21.4733455,5.35248038 C23.0554256,3.84208027 23.8368657,1.87344013 23.7639057,0.0811200057 Z"/>
    <path fill="#006837" d="M16.1007691,7.39504052 L23.7638097,0.0811200057 C23.8367697,1.87344013 23.0553296,3.84208027 21.4729295,5.35248038 C19.8908494,6.86256049 17.8873293,7.55120053 16.1007691,7.39504052"/>
    <path fill="#006837" d="M12.5054729,5.80192041 C11.2673928,4.62080033 10.6565128,3.08032022 10.7131528,1.67840012 L16.7080332,7.39968052 C15.3105931,7.52192053 13.743233,6.98304049 12.5054729,5.80192041"/>
    <path stroke="#000" stroke-width=".5" d="M23.7639057,0.0811200057 C21.9773456,-0.0750400053 19.9738254,0.613280043 18.3917453,2.12336015 C17.4160652,3.05456022 16.7463052,4.15984029 16.3920652,5.29040037 L16.3111052,5.29040037 C16.0112651,4.56976032 15.5447051,3.87664027 14.9159051,3.27600023 C13.677825,2.09488015 12.1111049,1.55632011 10.7133448,1.67856012 C10.6563848,3.08048022 11.2672648,4.62064033 12.5053449,5.80176041 C13.489345,6.74096048 14.680705,7.27216051 15.8301451,7.38992052 L15.8301451,24.2123217 L17.0611852,24.2123217 L17.0611852,7.39760052 C18.5799053,7.28144052 20.1693454,6.59664047 21.4733455,5.35248038 C23.0554256,3.84208027 23.8368657,1.87344013 23.7639057,0.0811200057 Z"/>
    <path fill="#006837" d="M26.1251538,17.5716172 C26.1603539,18.4394573 25.7821138,19.3927374 25.0157138,20.1242574 C24.2496337,20.8554575 23.2793936,21.1885775 22.4144336,21.1127375 C22.3792336,20.2448974 22.7577936,19.2916174 23.5238737,18.5607373 C24.2899537,17.8295373 25.2598738,17.4960972 26.1251538,17.5716172"/>
    <path stroke="#000" stroke-width=".5" d="M26.1251538,17.5716172 C26.1603539,18.4394573 25.7821138,19.3927374 25.0157138,20.1242574 C24.2496337,20.8554575 23.2793936,21.1885775 22.4144336,21.1127375 C22.3792336,20.2448974 22.7577936,19.2916174 23.5238737,18.5607373 C24.2899537,17.8295373 25.2598738,17.4960972 26.1251538,17.5716172 Z"/>
    <path fill="#009245" d="M22.4145296,21.1128655 L26.1252498,17.5717452 C26.1601299,18.4395853 25.7818898,19.3928654 25.0158098,20.1240654 C24.2494097,20.8552655 23.2794896,21.1883855 22.4145296,21.1128655"/>
    <path stroke="#000" stroke-width=".5" d="M26.1251538,17.5716172 C26.1603539,18.4394573 25.7821138,19.3927374 25.0157138,20.1242574 C24.2496337,20.8554575 23.2793936,21.1885775 22.4144336,21.1127375 C22.3792336,20.2448974 22.7577936,19.2916174 23.5238737,18.5607373 C24.2899537,17.8295373 25.2598738,17.4960972 26.1251538,17.5716172 Z"/>
    <path fill="#009245" d="M17.6035852,9.16691265 C18.7175053,9.06963264 19.9667854,9.49875267 20.9533455,10.4401927 C21.5613455,11.0206728 21.9789456,11.7099528 22.1997456,12.4145929 L22.2503056,12.4145929 C22.4371856,11.9656328 22.7280656,11.5336328 23.1203856,11.1592328 C23.8919057,10.4225927 24.8688658,10.0865927 25.7405458,10.1627527 C25.7757458,11.0369928 25.3949458,11.9973128 24.6234257,12.7336329 C24.0099857,13.3192329 23.2666256,13.650433 22.5501456,13.723713 L22.5501456,24.2123537 L21.7827855,24.2123537 L21.7827855,13.728833 C20.8359055,13.656513 19.8448654,13.2293129 19.0320653,12.4536329 C18.0455053,11.5118728 17.5581452,10.2843527 17.6035852,9.16691265"/>
    <path stroke="#000" stroke-width=".5" d="M17.6035852,9.16691265 C18.7175053,9.06963264 19.9667854,9.49875267 20.9533455,10.4401927 C21.5613455,11.0206728 21.9789456,11.7099528 22.1997456,12.4145929 L22.2503056,12.4145929 C22.4371856,11.9656328 22.7280656,11.5336328 23.1203856,11.1592328 C23.8919057,10.4225927 24.8688658,10.0865927 25.7405458,10.1627527 C25.7757458,11.0369928 25.3949458,11.9973128 24.6234257,12.7336329 C24.0099857,13.3192329 23.2666256,13.650433 22.5501456,13.723713 L22.5501456,24.2123537 L21.7827855,24.2123537 L21.7827855,13.728833 C20.8359055,13.656513 19.8448654,13.2293129 19.0320653,12.4536329 C18.0455053,11.5118728 17.5581452,10.2843527 17.6035852,9.16691265 Z"/>
    <path fill="#006837" d="M22.3814096,13.726913 L17.6034892,9.16691265 C17.5583692,10.2843527 18.0454093,11.5118728 19.0319693,12.4536329 C20.0185294,13.3950729 21.2678095,13.824513 22.3814096,13.726913"/>
    <path fill="#006837" d="M24.6232657,12.7337929 C25.3947858,11.9971528 25.7759058,11.0368328 25.7403858,10.1629127 L22.0031056,13.729953 C22.8741456,13.806433 23.8514257,13.470433 24.6232657,12.7337929"/>
    <path stroke="#000" stroke-width=".5" d="M17.6035852,9.16691265 C18.7175053,9.06963264 19.9667854,9.49875267 20.9533455,10.4401927 C21.5613455,11.0206728 21.9789456,11.7099528 22.1997456,12.4145929 L22.2503056,12.4145929 C22.4371856,11.9656328 22.7280656,11.5336328 23.1203856,11.1592328 C23.8919057,10.4225927 24.8688658,10.0865927 25.7405458,10.1627527 C25.7757458,11.0369928 25.3949458,11.9973128 24.6234257,12.7336329 C24.0099857,13.3192329 23.2666256,13.650433 22.5501456,13.723713 L22.5501456,24.2123537 L21.7827855,24.2123537 L21.7827855,13.728833 C20.8359055,13.656513 19.8448654,13.2293129 19.0320653,12.4536329 C18.0455053,11.5118728 17.5581452,10.2843527 17.6035852,9.16691265 Z"/>
    <path fill="#EDE6B7" d="M34.9311065,20.7744015 C34.9311065,20.7744015 19.0399053,22.7292816 19.0386253,25.3596818 C19.0373453,22.7292816 3.14582422,20.7744015 3.14582422,20.7744015 L3.14582422,27.3388819 L19.0386253,28.9801621 L34.9311065,27.3388819 L34.9311065,20.7744015 Z"/>
    <path stroke="#000" stroke-width=".5" d="M34.9311065,20.7744015 C34.9311065,20.7744015 19.0399053,22.7292816 19.0386253,25.3596818 C19.0373453,22.7292816 3.14582422,20.7744015 3.14582422,20.7744015 L3.14582422,27.3388819 L19.0386253,28.9801621 L34.9311065,27.3388819 L34.9311065,20.7744015 Z"/>
    <path fill="#8C6239" d="M20.5854735,27.3991059 L20.5854735,27.4330259 C20.5854735,28.287426 19.8929934,28.9799061 19.0385933,28.9799061 L19.0385933,30.9587862 C20.2641934,30.9587862 21.3461135,30.3296661 21.9781136,29.3779861 L36.1547546,29.3779861 C37.1701146,29.3779861 37.9931547,28.554626 37.9931547,27.5389459 L37.9931547,27.3991059 L20.5854735,27.3991059 Z"/>
    <path stroke="#000" stroke-width=".5" d="M20.5854735,27.3991059 L20.5854735,27.4330259 C20.5854735,28.287426 19.8929934,28.9799061 19.0385933,28.9799061 L19.0385933,30.9587862 C20.2641934,30.9587862 21.3461135,30.3296661 21.9781136,29.3779861 L36.1547546,29.3779861 C37.1701146,29.3779861 37.9931547,28.554626 37.9931547,27.5389459 L37.9931547,27.3991059 L20.5854735,27.3991059 Z"/>
    <path fill="#C69C6D" d="M17.4917132,27.3991059 L17.4917132,27.4330259 C17.4917132,28.287426 18.1841933,28.9799061 19.0385933,28.9799061 L19.0385933,30.9587862 C17.8126733,30.9587862 16.7310732,30.3296661 16.0990731,29.3779861 L1.92243214,29.3779861 C0.907072064,29.3779861 0.0837120059,28.554626 0.0837120059,27.5389459 L0.0837120059,27.3991059 L17.4917132,27.3991059 Z"/>
    <path stroke="#000" stroke-width=".5" d="M17.4917132,27.3991059 L17.4917132,27.4330259 C17.4917132,28.287426 18.1841933,28.9799061 19.0385933,28.9799061 L19.0385933,30.9587862 C17.8126733,30.9587862 16.7310732,30.3296661 16.0990731,29.3779861 L1.92243214,29.3779861 C0.907072064,29.3779861 0.0837120059,28.554626 0.0837120059,27.5389459 L0.0837120059,27.3991059 L17.4917132,27.3991059 Z"/>
    <path fill="#C6C29B" d="M32.9879703,23.6134737 C27.0388499,23.9478737 20.7543695,24.5136337 19.0385293,26.8227539 L19.0385293,28.172834 L19.4967694,28.172834 C19.4967694,25.2893138 28.9870101,24.7561938 33.0394903,24.5283537 L33.7217304,24.4896337 L33.6686104,23.5750737 L32.9879703,23.6134737 Z"/>
    <path fill="#C6C29B" d="M5.08921636,23.6134737 C11.0383368,23.9478737 17.3228172,24.5136337 19.0386573,26.8227539 L19.0386573,28.172834 L18.5804173,28.172834 C18.5804173,25.2893138 9.09017664,24.7561938 5.03769636,24.5283537 L4.35545631,24.4896337 L4.40857631,23.5750737 L5.08921636,23.6134737 Z"/>
  </g>
</svg>
