<svg xmlns="http://www.w3.org/2000/svg" width="40" height="40" viewBox="0 0 40 40">
  <g fill="none" fill-rule="evenodd" transform="rotate(39 19.148 37.12)">
    <path fill="#FCAEA4" d="M14.8767173,4.82044542 C15.541377,5.92986472 16.3864879,7.38778797 16.3864879,8.76388267 C16.3864879,10.1402028 14.360386,10.8888326 13.6956135,11.9957722 C13.0160759,13.1273957 13.1915677,15.057242 12.0253418,15.7070238 L11.8696872,15.7736363 C10.4788273,12.5220222 7.95341346,9.65103488 7.95341346,9.65103488 C7.95341346,9.65103488 5.25284592,12.7172385 3.89636302,16.1046699 L3.74318809,16.0430168 C2.5769622,15.3931222 1.55162569,13.9601082 0.872088058,12.8308517 C0.207428343,11.7216578 1.32169423,10.1402028 1.32169423,8.76388267 C1.32169423,7.38778797 1.42809389,6.53783055 2.09512054,5.43089091 C2.77217852,4.29915474 3.56532935,3.9087221 4.73392218,3.25894031 C5.85326008,2.63384233 6.59704327,0.424922354 7.97809728,0.424922354 C9.359264,0.424922354 10.8912387,1.22291977 12.0106893,1.84801775 C13.1768025,2.49791226 14.1971797,3.69130162 14.8767173,4.82044542"/>
    <path fill="#FA8F81" d="M7.95341346 9.65103488C7.95341346 9.65103488 3.53455911 11.8634489 2.1163103 14.6059451 2.60559093 15.1908051 3.15652474 15.715928 3.74318809 16.0430168L3.89636302 16.1046699C4.6527699 14.2160761 7.95341346 9.65103488 7.95341346 9.65103488M14.8767173 4.82044542C14.1971797 3.69130162 13.1768025 2.49791226 12.0106893 1.84801775 10.8912387 1.22291977 9.359264.424922354 7.97809728.424922354 7.66644998.424922354 7.38839071.541240622 7.13016866.722480714 8.00210483 1.01181113 8.84935717 1.46254442 9.53971511 1.84801775 10.7060537 2.49791226 11.7264309 3.69130162 12.4059685 4.82044542 13.0706283 5.92986472 13.9155137 7.38778797 13.9155137 8.76388267 13.9155137 10.1402028 11.8896372 10.8888326 11.2248647 11.9957722 10.9693478 12.4214836 10.8346575 12.9603572 10.7037995 13.5014851 11.1246642 14.2124693 11.5309892 14.9814998 11.8696872 15.7736363L12.0253418 15.7070238C13.1915677 15.057242 13.0160759 13.1273957 13.6956135 11.9957722 14.360386 10.8888326 16.3864879 10.1402028 16.3864879 8.76388267 16.3864879 7.38778797 15.541377 5.92986472 14.8767173 4.82044542"/>
    <path fill="#B66156" d="M3.74284996,16.3827292 C3.68694505,16.3827292 3.63025117,16.368753 3.57795303,16.3395607 C2.58879691,15.7885142 1.58059255,14.6668093 0.581179677,13.0058927 C0.0992253035,12.2016961 0.383258283,11.2532289 0.657936208,10.3359827 C0.817310269,9.80342083 0.982207193,9.25282516 0.982207193,8.76388267 C0.982207193,7.31125686 1.10517544,6.41565128 1.80432487,5.25551181 C2.48701843,4.1145333 3.27363198,3.67912878 4.36231236,3.07668581 L4.56891254,2.96217093 C4.96069771,2.74351062 5.32351603,2.26786809 5.70774954,1.76427311 C6.30838912,0.977321415 6.98894115,0.0853226054 7.97809728,0.0853226054 C9.36016569,0.0853226054 10.8125661,0.790107614 12.1763752,1.55169922 C13.2561514,2.1533532 14.3465224,3.28103176 15.1676257,4.64540447 C15.9563808,5.96164936 16.7260876,7.363555 16.7260876,8.76388267 C16.7260876,9.76340825 15.8690294,10.4548933 15.1129606,11.0650007 C14.6516325,11.437174 14.2158898,11.7886085 13.9867473,12.170475 C13.7498278,12.5653034 13.6246053,13.0837763 13.4921693,13.6329068 C13.2669717,14.5673978 13.033997,15.5336735 12.1906896,16.0036804 C12.0263562,16.0946386 11.819756,16.0360286 11.7286851,15.8722588 C11.6372761,15.708489 11.6961115,15.5016634 11.859994,15.4103671 C12.4436142,15.0853071 12.6322932,14.3024131 12.8321307,13.4736454 C12.9704277,12.8990422 13.1137968,12.3049399 13.4044797,11.8209567 C13.695839,11.3358464 14.1996594,10.9294087 14.686573,10.5364964 C15.3861733,9.97203724 16.0468881,9.43879913 16.0468881,8.76388267 C16.0468881,7.43422511 15.1674003,5.96638324 14.5853581,4.99503554 C13.8241046,3.72984895 12.8250299,2.69064892 11.8453415,2.14467442 C11.0429484,1.6965335 9.37391649,0.764522103 7.97809728,0.764522103 C7.32493413,0.764522103 6.80172735,1.45025887 6.24763762,2.17634635 C5.83826945,2.71285309 5.41492506,3.26761909 4.89949537,3.55537155 L4.69120452,3.67090084 C3.65820362,4.24246085 2.97573549,4.62015709 2.38647977,5.60514289 C1.76589025,6.63510057 1.66129398,7.41190823 1.66129398,8.76388267 C1.66129398,9.35234941 1.48185727,9.95129832 1.30850699,10.5307481 C1.06527557,11.3427218 0.835682243,12.1096108 1.16333457,12.6562616 C2.08734345,14.1918431 3.03671241,15.2605735 3.90842315,15.7464728 C4.07219296,15.8376564 4.13102836,16.044482 4.03973205,16.2082518 C3.97762801,16.3197235 3.86198601,16.3827292 3.74284996,16.3827292"/>
    <path fill="#D1CBDA" d="M11.8283221,17.8900201 C9.90298427,17.8900201 9.90298427,16.4075257 7.97753372,16.4075257 C6.0524213,16.4075257 6.0524213,17.8900201 4.12730888,17.8900201 C3.82738358,17.8900201 3.57795303,17.8510219 3.35681307,17.7902704 C3.22110843,18.3707346 3.14277393,18.9474794 3.14277393,19.507092 C3.14277393,20.6264299 3.81487261,21.6913281 4.06678281,22.6573784 L11.8376772,22.6573784 C12.0895874,21.6913281 12.7619115,20.6264299 12.7619115,19.507092 C12.7619115,18.952326 12.6825626,18.3802024 12.5483232,17.8041339 C12.3392433,17.8567702 12.1055924,17.8900201 11.8283221,17.8900201"/>
    <path fill="#E3796B" d="M6.97710645 10.9432722C7.05381756 10.8660773 7.12895856 10.7911074 7.20252945 10.7178492 7.12895856 10.7911074 7.05404186 10.8659061 6.97710645 10.9432722M7.94507281 9.78234378C7.9655863 9.75867437 7.98271845 9.73816087 7.99737094 9.72147957 7.98316929 9.73771003 7.96536088 9.75889979 7.94507281 9.78234378M7.21008112 10.5627582C7.46852859 10.2302593 7.67681944 9.97722197 7.80643766 9.82314535 7.67704486 9.97688383 7.46909214 10.2296957 7.21008112 10.5627582"/>
    <path fill="#E3796B" d="M7.99043919 9.72970751C7.99607476 9.7227194 8.00396457 9.71415332 8.00779676 9.70941944 8.00373914 9.71437875 7.99720188 9.72181771 7.99043919 9.72970751M7.90336955 9.83137328C7.92861693 9.80139203 7.95273719 9.77298873 7.97325068 9.74931931 7.95251177 9.77321415 7.92906777 9.80071576 7.90336955 9.83137328M7.09922936 10.7906609C7.17452064 10.713027 7.24778311 10.637886 7.31946763 10.5652379 7.24778311 10.637886 7.17452064 10.713027 7.09922936 10.7906609M7.97753372 16.4075257C8.93727214 16.4075257 9.41866296 16.7759796 9.89858852 17.1454479 9.75984067 16.6854723 9.59235138 16.2258348 9.39893844 15.7736363 8.64377139 14.0087996 7.55542915 12.3573507 6.71730644 11.2149069 6.75957325 11.1573114 6.8011638 11.101181 6.84219078 11.0462905 5.9386954 12.2586154 4.68861215 14.126245 3.89636302 16.1046699 3.67375781 16.6618029 3.48834739 17.2277273 3.35681307 17.7902704 3.57795303 17.8510219 3.82738358 17.8900201 4.12730888 17.8900201 6.0524213 17.8900201 6.0524213 16.4075257 7.97753372 16.4075257"/>
    <path fill="#E3796B" d="M6.84974245 11.1050132C6.92603614 11.0279247 7.00124918 10.9527837 7.07516545 10.8795902 7.00103306 10.9527837 6.92603614 11.0279247 6.84974245 11.1050132M7.84605575 9.89916925C7.87829124 9.86084734 7.90759623 9.8261322 7.93464699 9.79434756 7.90759623 9.8261322 7.87829124 9.86084734 7.84605575 9.89916925"/>
    <path fill="#D1CBDA" d="M10.077349 17.8041339C10.0264034 17.5847974 9.96475017 17.3651226 9.89858852 17.1454479 9.41866296 16.7759796 8.93727214 16.4075257 7.97753372 16.4075257 6.0524213 16.4075257 6.0524213 17.8900201 4.12730888 17.8900201 3.82738358 17.8900201 3.57795303 17.8510219 3.35681307 17.7902704 3.22110843 18.3707346 3.14277393 18.9474794 3.14277393 19.507092 3.14277393 20.6264299 3.81487261 21.6913281 4.06678281 22.6573784L9.36692838 22.6573784C9.61861316 21.6913281 10.2908245 20.6264299 10.2908245 19.507092 10.2908245 18.952326 10.2114756 18.3802024 10.077349 17.8041339M7.14296142 10.7791643C7.14792072 10.772627 7.15288003 10.7656389 7.15806476 10.7593271 7.15288003 10.7656389 7.14792072 10.772627 7.14296142 10.7791643M6.8947707 11.1077183C6.89950458 11.1009556 6.90468931 11.0941929 6.90987404 11.0874302 6.90468931 11.0941929 6.89950458 11.1009556 6.8947707 11.1077183M7.01875335 10.942596C7.02506519 10.9338045 7.0320533 10.9245621 7.03836515 10.915996 7.0320533 10.9245621 7.02506519 10.9338045 7.01875335 10.942596M7.26339366 10.6228334C7.26452077 10.6212555 7.26632416 10.6194521 7.26745127 10.6178741 7.26632416 10.6194521 7.26452077 10.6212555 7.26339366 10.6228334M8.00030144 9.71804187C8.00706413 9.71060291 8.01292513 9.70384022 8.01292513 9.70384022 8.01292513 9.70384022 8.00841667 9.70879953 8.00030144 9.71804187M7.97905532 9.74272569C7.98717055 9.73325792 7.9934824 9.72581896 8.00001966 9.71860543 7.99325697 9.72626981 7.98784682 9.73258165 7.97905532 9.74272569M7.90832886 9.82539958C7.91396443 9.81886231 7.91960001 9.81255046 7.92501016 9.8060132 7.91914916 9.81277589 7.91396443 9.81863689 7.90832886 9.82539958M7.86008834 9.88276973C7.8636951 9.87848669 7.86707645 9.87397823 7.87090864 9.86969519 7.86707645 9.87420365 7.8636951 9.87826127 7.86008834 9.88276973M7.95459693 9.77118534C7.95640031 9.76915654 7.95752743 9.76735315 7.95933081 9.76577519 7.95752743 9.76757858 7.95640031 9.76893111 7.95459693 9.77118534"/>
    <path fill="#B66156" d="M9.39893844,15.7736363 C9.59235138,16.2258348 9.75984067,16.6854723 9.89858852,17.1454479 C10.3815573,17.5171705 10.8624973,17.8900201 11.8283221,17.8900201 C12.1055924,17.8900201 12.3392433,17.8567702 12.5483232,17.8041339 C12.3905271,17.1256107 12.155749,16.44179 11.8696872,15.7736363 C10.4788273,12.5220222 7.95341346,9.65103488 7.95341346,9.65103488 C7.95341346,9.65103488 7.95048296,9.65441623 7.94710161,9.65813571 C7.94518552,9.66050265 7.94124062,9.66478569 7.93842283,9.66827974 C7.9351542,9.67188651 7.93199827,9.67560599 7.92794066,9.68033987 C7.92061441,9.68868053 7.91204834,9.69893727 7.90179159,9.71077198 C7.9008899,9.71156096 7.90032634,9.71246265 7.89942465,9.71347706 C7.8891679,9.72531176 7.87710777,9.73951341 7.86448408,9.75450404 C7.86177901,9.75777268 7.85896122,9.7609286 7.85614343,9.76419723 C7.84261805,9.78008955 7.82796556,9.79744712 7.81184781,9.81660808 C7.80993172,9.8187496 7.80824105,9.82100383 7.80643766,9.82314535 C7.67681944,9.97722197 7.46852859,10.2302593 7.21008112,10.5627582 C7.20951756,10.5635472 7.20861587,10.5644489 7.20805231,10.5652379 C7.17221005,10.6112242 7.13557882,10.6587884 7.09793317,10.7079306 C7.09534081,10.7110865 7.09286116,10.7145806 7.0903815,10.7178492 C7.05341213,10.7660898 7.01565378,10.8154574 6.97710645,10.8662903 C6.97395052,10.8705733 6.97045647,10.8751945 6.96730055,10.8795902 C6.92875321,10.9304231 6.88952961,10.9826085 6.84974245,11.0361465 C6.84715009,11.0395279 6.84455772,11.0429092 6.84219078,11.0462905 C6.8011638,11.101181 6.75957325,11.1573114 6.71730644,11.2149069 C7.55542915,12.3573507 8.64377139,14.0087996 9.39893844,15.7736363"/>
    <path fill="#AA9FBC" d="M12.5483232,17.8041339 C12.3392433,17.8567702 12.1055924,17.8900201 11.8283221,17.8900201 C10.8624973,17.8900201 10.3815573,17.5171705 9.89858852,17.1454479 C9.96475017,17.3651226 10.0264034,17.5847974 10.077349,17.8041339 C10.2114756,18.3802024 10.2908245,18.952326 10.2908245,19.507092 C10.2908245,20.6264299 9.61861316,21.6913281 9.36692838,22.6573784 L11.8376772,22.6573784 C12.0895874,21.6913281 12.7619115,20.6264299 12.7619115,19.507092 C12.7619115,18.952326 12.6825626,18.3802024 12.5483232,17.8041339"/>
    <path fill="#FFD264" d="M11.904177,25.684133 C11.9140956,26.2574964 11.9191676,26.8379606 11.9191676,27.4236096 C11.9191676,27.8017567 11.9168006,28.1796783 11.9140956,28.5528661 L3.95576198,28.5528661 C3.95316962,28.1796783 3.95080268,27.8017567 3.95080268,27.4236096 C3.95080268,26.8379606 3.95576198,26.2574964 3.96545517,25.684133 C3.98529239,24.6538372 4.01989483,23.6432659 4.06678281,22.6573784 L11.8030747,22.6573784 C11.8524424,23.6432659 11.8871575,24.6538372 11.904177,25.684133"/>
    <path fill="#D1AC52" d="M11.904177,25.684133 C11.8871575,24.6538372 11.8524424,23.6432659 11.8030747,22.6573784 L9.33232595,22.6573784 C9.38146816,23.6432659 9.4161833,24.6538372 9.43342816,25.684133 C9.44334677,26.2574964 9.44841879,26.8379606 9.44841879,27.4236096 C9.44841879,27.8017567 9.44605185,28.1796783 9.44334677,28.5528661 L11.9140956,28.5528661 C11.9168006,28.1796783 11.9191676,27.8017567 11.9191676,27.4236096 C11.9191676,26.8379606 11.9140956,26.2574964 11.904177,25.684133"/>
    <path fill="#25B9A8" d="M3.95576198,28.5528661 L11.9140956,28.5528661 C11.8225738,39.7282113 10.3477438,48.608525 7.9361686,48.608525 C5.52459335,48.608525 4.04953795,39.7282113 3.95576198,28.5528661"/>
    <path fill="#1E9789" d="M9.44334677,28.5528661 C9.36861905,37.6678451 8.37337651,45.2537799 6.70073785,47.7421117 C7.07888493,48.3046548 7.49152173,48.608525 7.9361686,48.608525 C10.3477438,48.608525 11.8225738,39.7282113 11.9140956,28.5528661 L9.44334677,28.5528661"/>
    <path fill="#000" d="M7.9361686,49.0612871 C3.88069612,49.0612871 3.53174132,31.9806483 3.50299989,28.5565856 C3.50040752,28.1818199 3.49804058,27.8026584 3.49804058,27.4236096 C3.49804058,26.835481 3.50299989,26.2523117 3.51280579,25.6765814 C3.53207945,24.6753651 3.56623104,23.652621 3.61469698,22.6358505 C3.62641898,22.3863073 3.83617508,22.1890621 4.08819799,22.2051799 C4.33807939,22.2170146 4.53092877,22.4291376 4.51898135,22.6787936 C4.47107896,23.6872234 4.4371528,24.7012887 4.41810455,25.6929245 C4.40841137,26.2626812 4.40345206,26.840553 4.40345206,27.4236096 C4.40345206,27.8007423 4.40593171,28.1775368 4.40841137,28.5497102 C4.51537458,41.2840809 6.30579675,48.1557629 7.9361686,48.1557629 C9.56732942,48.1557629 11.3570753,41.2840809 11.4614462,28.5490339 C11.4640385,28.1775368 11.4665182,27.8006296 11.4665182,27.4236096 C11.4665182,26.8406657 11.4614462,26.2627939 11.4514149,25.6920228 C11.4350717,24.6993727 11.4012582,23.686209 11.3509889,22.6800334 C11.3384779,22.4302647 11.5307638,22.2176908 11.7806451,22.2051799 C12.0216223,22.1958248 12.2429877,22.3849547 12.2551606,22.6347234 C12.3059934,23.6509303 12.3403705,24.6743507 12.3568263,25.6766941 C12.3668577,26.2538897 12.3719297,26.8415674 12.3719297,27.4236096 C12.3719297,27.8027711 12.36945,28.1819326 12.3668577,28.556022 C12.3387925,31.9806483 11.9934445,49.0612871 7.9361686,49.0612871"/>
    <path fill="#000" d="M11.9191676 29.0055155L3.95576198 29.0055155C3.70565516 29.0055155 3.50040752 28.8028602 3.50040752 28.5528661 3.50040752 28.302872 3.70069586 28.100104 3.95080268 28.100104L11.9140956 28.100104C12.1640897 28.100104 12.3692246 28.302872 12.3692246 28.5528661 12.3692246 28.8028602 12.1691617 29.0055155 11.9191676 29.0055155M4.40345206 22.2046163L11.5008952 22.2046163C11.5875703 21.9444782 11.692392 21.6827621 11.7947341 21.4273578 12.0476587 20.7957226 12.3090367 20.1426721 12.3090367 19.507092 12.3090367 18.4746546 12.0213969 17.2783348 11.4534437 15.9518331 10.4075937 13.5064444 8.68096619 11.2516509 7.95318804 10.3567216 7.19362524 11.2900855 5.34549477 13.7036896 4.31655149 16.2730609 3.83820389 17.4705079 3.59553603 18.5587374 3.59553603 19.507092 3.59553603 20.1426721 3.85702671 20.795948 4.1098386 21.4275832 4.21218064 21.6829875 4.31677692 21.9445909 4.40345206 22.2046163zM11.8376772 23.1101405L4.06678281 23.1101405C3.86074619 23.1101405 3.68074592 22.9710545 3.62878592 22.7716679 3.54661924 22.4570901 3.411929 22.1204208 3.26923624 21.7641398 2.99771423 21.0859547 2.69012455 20.3172622 2.69012455 19.507092 2.69012455 18.4430954 2.95443302 17.241929 3.47594913 15.9366171 4.84573198 12.5158231 7.50144034 9.47937527 7.613701 9.35189856 7.69969987 9.25429041 7.8234571 9.19827279 7.95341346 9.19827279L7.95352617 9.19827279C8.08359524 9.19827279 8.20746518 9.25440312 8.29335134 9.35212399 8.39839846 9.47148547 10.8826726 12.3150839 12.2859308 15.5956648 12.9022373 17.0354415 13.2145608 18.3513483 13.2145608 19.507092 13.2145608 20.3172622 12.9068585 21.0859547 12.6352237 21.7640271 12.492531 22.1204208 12.357728 22.4570901 12.2756741 22.7716679 12.2236013 22.9710545 12.0436011 23.1101405 11.8376772 23.1101405L11.8376772 23.1101405z"/>
    <path fill="#000" d="M7.9361686 23.1101405C7.68617449 23.1101405 7.4834065 22.9073725 7.4834065 22.6573784L7.4834065 16.154263C7.4834065 15.9041562 7.68617449 15.7015009 7.9361686 15.7015009 8.18616271 15.7015009 8.38893069 15.9041562 8.38893069 16.154263L8.38893069 22.6573784C8.38893069 22.9073725 8.18616271 23.1101405 7.9361686 23.1101405M5.81121869 23.1101405C5.56122459 23.1101405 5.35856931 22.9073725 5.35856931 22.6573784L5.35856931 19.7369107C5.35856931 19.4869166 5.56122459 19.2841486 5.81121869 19.2841486 6.06132551 19.2841486 6.26398079 19.4869166 6.26398079 19.7369107L6.26398079 22.6573784C6.26398079 22.9073725 6.06132551 23.1101405 5.81121869 23.1101405M10.127731 23.1101405C9.87773689 23.1101405 9.67496891 22.9073725 9.67496891 22.6573784L9.67496891 19.7369107C9.67496891 19.4869166 9.87773689 19.2841486 10.127731 19.2841486 10.3778378 19.2841486 10.5803804 19.4869166 10.5803804 19.7369107L10.5803804 22.6573784C10.5803804 22.9073725 10.3778378 23.1101405 10.127731 23.1101405M6.98488354 26.1368951L3.96545517 26.1368951C3.71546106 26.1368951 3.50525412 25.9342398 3.50525412 25.684133 3.50525412 25.4341389 3.70069586 25.2314836 3.95080268 25.2314836L6.98488354 25.2314836C7.23487765 25.2314836 7.43764563 25.4341389 7.43764563 25.684133 7.43764563 25.9342398 7.23487765 26.1368951 6.98488354 26.1368951M11.904177 26.1368951L10.6368488 26.1368951C10.3868547 26.1368951 10.1840868 25.9342398 10.1840868 25.684133 10.1840868 25.4341389 10.3868547 25.2314836 10.6368488 25.2314836L11.904177 25.2314836C12.1541711 25.2314836 12.3568263 25.4341389 12.3568263 25.684133 12.3568263 25.9342398 12.1541711 26.1368951 11.904177 26.1368951"/>
    <path fill="#FA8F81" d="M8.509532 3.31732486C8.17004496 3.52696825 7.88432131 3.78981147 7.56546048 4.02853443 7.17807105 4.31820298 6.63976093 4.42595518 6.19150729 4.59119023 5.60236428 4.80827258 5.04004661 5.13569949 4.5018492 5.45602557 3.32536656 6.15641483 2.33080029 7.18592167 2.63591032 8.64226696 2.92422634 10.0191506 4.4214859 10.2710608 5.36600827 9.40115349 5.7740239 9.02537335 6.11351093 8.57881039 6.41670487 8.11545341 6.6767303 7.71803266 6.83249759 7.27507647 7.12904155 6.89433702 7.48847852 6.43312156 8.11019515 6.10253874 8.57219959 5.74321447 8.68536194 5.65507408 8.76076593 5.55318289 8.80855561 5.44486713 9.08526234 5.21955685 9.33953948 4.95806617 9.60677845 4.73918043 10.4115386 4.07914189 9.37087328 2.78510116 8.509532 3.31732486M11.6408829 5.93369691C10.9820842 5.12611901 9.72253316 6.16351566 10.2282697 7.02372982 10.5194035 7.51920958 10.8035492 7.92305488 10.8552837 8.42293038 10.9089344 8.93937447 11.2479706 9.37568069 11.808034 9.37568069 12.2866071 9.37568069 12.8143223 8.9406143 12.7605589 8.42293038 12.6605838 7.45935977 12.2470453 6.67680383 11.6408829 5.93369691"/>
  </g>
</svg>
