<svg xmlns="http://www.w3.org/2000/svg" xmlns:xlink="http://www.w3.org/1999/xlink" width="40" height="40" viewBox="0 0 40 40">
  <defs>
    <polygon id="dibujos_40x40-a" points="0 .057 32.804 .057 32.804 27.26 0 27.26"/>
    <polygon id="dibujos_40x40-c" points="0 .057 32.804 .057 32.804 27.26 0 27.26"/>
    <polygon id="dibujos_40x40-e" points=".01 .245 21.931 .245 21.931 8.396 .01 8.396"/>
  </defs>
  <g fill="none" fill-rule="evenodd" transform="translate(3 3)">
    <path fill="#F38120" d="M2.91641392,15.4233596 C2.83637392,15.8629995 2.76358392,16.3006095 2.69166392,16.7379295 C9.15489374,19.1472494 20.8581334,22.2113894 32.6034231,18.7609695 C32.5816731,17.0589595 32.4897431,15.3552096 32.3180631,13.6392796 C32.2937031,13.4130796 32.2441131,13.1877496 32.1739331,12.9656096 C21.2238234,16.8846695 9.51768373,16.2710295 2.91641392,15.4233596"/>
    <path fill="#34B982" d="M7.18756279,9.63623572 C5.44379284,9.81429572 3.74758289,11.3724657 3.3659429,13.1223256 C3.3064929,13.4059456 3.25516291,13.6860856 3.19890291,13.9685456 C8.03639277,13.3435956 15.4722826,12.0327957 23.4090023,9.33637573 C18.0045625,9.00693574 12.5789526,9.10437574 7.18756279,9.63623572"/>
    <path fill="#ED1B24" d="M2.69154792,16.7378425 C2.61034792,17.2305525 2.53581793,17.7221025 2.46534793,18.2119125 C8.56665775,22.2139124 19.7502174,27.6406822 32.3921871,24.6035123 C32.5563271,22.6483323 32.6279571,20.7056224 32.6033071,18.7611725 C20.8580174,22.2113024 9.15477774,19.1471624 2.69154792,16.7378425"/>
    <path fill="#A02776" d="M2.25585194,19.7665734 C2.14101194,20.7099434 2.05024194,21.6498334 1.97745194,22.5868234 C4.63211187,26.3582732 8.58916175,30.6143131 14.1136616,33.384973 C18.8403715,33.047993 23.6511813,32.3914331 28.4956312,31.4973631 C29.0501112,31.3920931 29.5842911,31.1632831 30.0642411,30.8477631 C17.6887815,32.3374931 7.74555178,25.0880733 2.25585194,19.7665734"/>
    <path fill="#ED008C" d="M32.0247571,27.9626112 C32.1775871,26.8365412 32.2982271,25.7183013 32.3921871,24.6035413 C19.7502174,27.6407112 8.56665775,22.2139414 2.46534793,18.2119415 C2.39023793,18.7313315 2.31860793,19.2501414 2.25596794,19.7666314 C7.74537778,25.0881313 17.6886075,32.3375511 30.0640671,30.8478211 C31.0918271,30.1721211 31.8655471,29.0956412 32.0247571,27.9626112"/>
    <path fill="#0086CF" d="M1.97745194,22.5867074 C1.79620195,24.9223673 1.74081195,27.2438172 1.84434195,29.5707771 C1.95222194,31.5862771 4.06023188,33.597717 6.10299182,33.633967 C8.73909175,33.667027 11.4128917,33.577707 14.1136616,33.385147 C8.58916175,30.6141971 4.63211187,26.3581572 1.97745194,22.5867074"/>
    <path fill="#FFC50C" d="M32.1739911,12.9655806 C31.6685211,11.3682607 30.0497411,9.95161071 28.3889112,9.75905072 C26.7318512,9.57606072 25.0713113,9.43744073 23.4087413,9.33623073 C15.4723116,12.0326507 8.03642177,13.3437406 3.19864191,13.9684006 C3.10149191,14.4544406 3.00434191,14.9404806 2.91647192,15.4233306 C9.51774173,16.2710005 21.2238814,16.8846405 32.1739911,12.9655806"/>
    <g transform="translate(0 7.295)">
      <mask id="dibujos_40x40-b" fill="#fff">
        <use xlink:href="#dibujos_40x40-a"/>
      </mask>
      <path fill="#231E20" d="M16.4002825,1.14718197 C12.9774126,1.14718197 9.55483273,1.32089196 6.15342282,1.66831195 C4.59612287,1.83332195 3.04549291,3.3073919 2.69894292,4.95459186 C1.42062296,11.2496217 0.911962974,16.9417415 1.14454297,22.3531414 C1.24024296,24.2045013 3.18179291,26.1295212 4.99197286,26.1625812 C11.9682127,26.2521912 19.4693524,25.5109513 27.9202422,23.8947813 C29.5024822,23.5830313 30.9057921,22.1310014 31.1151721,20.5887814 C31.7981221,15.3838616 31.8961421,10.4297917 31.4147421,5.44585184 C31.2378421,3.74181189 29.5381522,2.00123194 27.8489022,1.79823195 C24.0530923,1.36439196 20.2265424,1.14718197 16.4002825,1.14718197 M6.12442282,27.2599412 C5.73930283,27.2599412 5.35679285,27.2576212 4.97486286,27.2526912 C2.57134293,27.2086112 0.182032995,24.8526513 0.0555929984,22.4044714 C-0.180756995,16.8991115 0.33457299,11.1205717 1.63174295,4.73390186 C2.07631294,2.62009192 4.01264288,0.798891977 6.04061283,0.584291983 C13.3239626,-0.159847995 20.7033024,-0.115767997 27.9762122,0.715661979 C30.1970321,0.982751972 32.2667621,3.09888191 32.4990521,5.33710185 C32.9891521,10.4083317 32.8896821,15.4430216 32.1954221,20.7329114 C31.9228221,22.7440613 30.1747021,24.5626513 28.1290422,24.9645913 L28.1261422,24.9651713 C20.0635624,26.5071012 12.8512626,27.2599412 6.12442282,27.2599412" mask="url(#dibujos_40x40-b)"/>
    </g>
    <g transform="translate(0 7.295)">
      <mask id="dibujos_40x40-d" fill="#fff">
        <use xlink:href="#dibujos_40x40-c"/>
      </mask>
      <path fill="#231E20" d="M16.4002825,1.14718197 C12.9774126,1.14718197 9.55483273,1.32089196 6.15342282,1.66831195 C4.59612287,1.83332195 3.04549291,3.3073919 2.69894292,4.95459186 C1.42062296,11.2496217 0.911962974,16.9417415 1.14454297,22.3531414 C1.24024296,24.2045013 3.18179291,26.1295212 4.99197286,26.1625812 C11.9682127,26.2521912 19.4693524,25.5109513 27.9202422,23.8947813 C29.5024822,23.5830313 30.9057921,22.1310014 31.1151721,20.5887814 C31.7981221,15.3838616 31.8961421,10.4297917 31.4147421,5.44585184 C31.2378421,3.74181189 29.5381522,2.00123194 27.8489022,1.79823195 C24.0530923,1.36439196 20.2265424,1.14718197 16.4002825,1.14718197 M6.12442282,27.2599412 C5.73930283,27.2599412 5.35679285,27.2576212 4.97486286,27.2526912 C2.57134293,27.2086112 0.182032995,24.8526513 0.0555929984,22.4044714 C-0.180756995,16.8991115 0.33457299,11.1205717 1.63174295,4.73390186 C2.07631294,2.62009192 4.01264288,0.798891977 6.04061283,0.584291983 C13.3239626,-0.159847995 20.7033024,-0.115767997 27.9762122,0.715661979 C30.1970321,0.982751972 32.2667621,3.09888191 32.4990521,5.33710185 C32.9891521,10.4083317 32.8896821,15.4430216 32.1954221,20.7329114 C31.9228221,22.7440613 30.1747021,24.5626513 28.1290422,24.9645913 L28.1261422,24.9651713 C20.0635624,26.5071012 12.8512626,27.2599412 6.12442282,27.2599412" mask="url(#dibujos_40x40-d)"/>
    </g>
    <path fill="#FFF" d="M24.6614833,29.0908852 C19.2158634,30.1479351 13.8288236,30.7656351 8.64275375,30.6977751 C7.18173379,30.6705151 5.67373384,29.1575852 5.59659384,27.6423352 C5.42375384,23.5617453 5.83729383,19.5087054 6.68496381,15.2720956 C6.9578538,13.9560756 8.17150376,12.7841856 9.41879373,12.6502056 C14.4618936,12.1273357 19.5467534,12.1580757 24.5849233,12.7424256 C25.9380633,12.9077256 27.2532132,14.2666656 27.3958932,15.6606955 C27.7386732,19.2659754 27.6551532,22.8010753 27.1856432,26.4327452 C27.0188932,27.6826452 25.9070333,28.8426452 24.6614833,29.0908852"/>
    <g transform="translate(6 12)">
      <path fill="#7AA102" d="M3.88665165,13.2280527 C3.88665165,14.478306 2.67763126,14.8031496 2.67763126,14.8031496 C2.67763126,14.8031496 1.46861087,14.478306 1.46861087,13.2280527 C1.46861087,11.9767238 2.67763126,10.2718329 2.67763126,10.2718329 C2.67763126,10.2718329 3.88665165,11.9767238 3.88665165,13.2280527"/>
      <path fill="#4D5E08" d="M2.6775954,10.2717971 L2.6775954,14.8031137 C2.6775954,14.8031137 3.88661579,14.4782702 3.88661579,13.2280169 C3.88661579,11.9766879 2.6775954,10.2717971 2.6775954,10.2717971"/>
      <path fill="#90654F" d="M2.78300821,15.682235 C2.78300821,15.750359 2.73639711,15.8044996 2.68010523,15.8044996 C2.62273772,15.8044996 2.5768437,15.750359 2.5768437,15.682235 L2.5768437,12.7353375 C2.5768437,12.6672135 2.62273772,12.6112802 2.68010523,12.6112802 C2.73639711,12.6112802 2.78300821,12.6672135 2.78300821,12.7353375 L2.78300821,15.682235 Z"/>
      <path fill="#90654F" d="M2.68003352,12.6111009 L2.68003352,15.8043203 C2.7363254,15.8043203 2.7829365,15.7505382 2.7829365,15.6820558 L2.7829365,12.7355167 C2.7829365,12.6670343 2.7363254,12.6111009 2.68003352,12.6111009"/>
      <path fill="#7AA102" d="M15.0647988,12.7098448 C15.0647988,13.9622494 13.8557785,14.2874515 13.8557785,14.2874515 C13.8557785,14.2874515 12.646041,13.9622494 12.646041,12.7098448 C12.646041,11.4595915 13.8557785,9.75326645 13.8557785,9.75326645 C13.8557785,9.75326645 15.0647988,11.4595915 15.0647988,12.7098448"/>
      <path fill="#4D5E08" d="M13.8557426,9.75323059 L13.8557426,14.2874156 C13.8557426,14.2874156 15.064763,13.9622135 15.064763,12.7098089 C15.064763,11.4595556 13.8557426,9.75323059 13.8557426,9.75323059"/>
      <path fill="#90654F" d="M13.9593985,15.1636685 C13.9593985,15.2314339 13.9138631,15.2877258 13.8564956,15.2877258 C13.8009208,15.2877258 13.7550268,15.2314339 13.7550268,15.1636685 L13.7550268,12.2182052 C13.7550268,12.1504398 13.8009208,12.0937894 13.8564956,12.0937894 C13.9138631,12.0937894 13.9593985,12.1504398 13.9593985,12.2182052 L13.9593985,15.1636685 Z"/>
      <path fill="#90654F" d="M13.8564597,12.0939686 L13.8564597,15.2875465 C13.9138272,15.2875465 13.9593627,15.2316132 13.9593627,15.1638478 L13.9593627,12.2183844 C13.9593627,12.1502605 13.9138272,12.0939686 13.8564597,12.0939686"/>
      <path fill="#D2F6FF" d="M3.42701695 7.36284954C3.39976738 7.36284954 3.37108362 7.36822774 3.34490969 7.37647432 3.27140756 7.15560939 3.09392681 7 2.88668666 7 2.71494266 7 2.56614567 7.10326153 2.47722602 7.26209784 2.44854226 7.25528544 2.4198585 7.25098288 2.39117475 7.25098288 2.17425383 7.25098288 2 7.46395978 2 7.72749181 2 7.95014948 2.12369871 8.13551826 2.29149869 8.18714902L2.29149869 8.20364219 3.42701695 8.20364219C3.61776394 8.20364219 3.77229768 8.01504648 3.77229768 7.78306659 3.77229768 7.55072815 3.61776394 7.36284954 3.42701695 7.36284954M15.6078746 6.29976303C15.5781438 6.29976303 15.5435918 6.30450237 15.5130575 6.31101896 15.4335074 6.12914692 15.2310165 6 14.9987947 6 14.8067497 6 14.6380072 6.08649289 14.5375653 6.21919431 14.5038168 6.21267773 14.4764966 6.21030806 14.4395339 6.21030806 14.1976697 6.21030806 14 6.38625592 14 6.60248815 14 6.78732227 14.1398152 6.94312796 14.328646 6.98518957L14.328646 7 15.6078746 7C15.8216151 7 16 6.84419431 16 6.65225118 16 6.45853081 15.8216151 6.29976303 15.6078746 6.29976303"/>
      <path fill="#FFF" d="M10.491462,3.13169267 C10.4502291,3.13169267 10.4093547,3.13742943 10.3706316,3.14782729 C10.262709,2.8624239 10.0052723,2.66235469 9.70265862,2.66235469 C9.45382702,2.66235469 9.23511336,2.79573416 9.10603646,3.00010593 C9.06623774,2.99078371 9.02249501,2.98432987 8.98018647,2.98432987 C8.66358949,2.98432987 8.40830405,3.25969394 8.40830405,3.59995502 C8.40830405,3.88643405 8.591163,4.12630197 8.83676768,4.19514299 L8.83676768,4.21378744 L10.491462,4.21378744 C10.7711286,4.21378744 10.9962961,3.97248532 10.9962961,3.67202296 C10.9962961,3.37335333 10.7711286,3.13169267 10.491462,3.13169267"/>
      <path fill="#EDF2F4" d="M12.6655115,6.013012 C12.3499902,6.76058243 12.1162176,6.81902559 12.0688894,6.8000226 C12.0222783,6.78137816 11.9007308,6.57772348 12.2166107,5.83015304 C12.5310564,5.08222406 13.150267,4.06789467 13.2122957,4.09227587 C13.2753999,4.11880834 12.9821085,5.2665172 12.6655115,6.013012"/>
      <path fill="#809091" d="M13.2124391,4.09213245 L12.0690328,6.80023773 C12.1160024,6.81888217 12.3501336,6.76043901 12.6656549,6.01286858 C12.9818934,5.26637378 13.2755433,4.11866492 13.2124391,4.09213245"/>
      <path fill="#EDF2F4" d="M10.8773302,6.77983641 C11.7019882,6.74290607 11.8558049,6.92576502 11.856898,6.97524451 C11.8586733,7.02544108 11.7235011,7.22049063 10.9002772,7.25742097 C10.0763363,7.2957855 8.87950648,7.1767479 8.8769829,7.11149236 C8.87233554,7.04336843 10.0541064,6.81784239 10.8773302,6.77983641"/>
      <path fill="#809091" d="M8.87694705,7.11142065 L11.8572032,6.9751728 C11.8561276,6.92569331 11.7019524,6.74319291 10.8772944,6.7797647 C10.0540705,6.81812922 8.87229968,7.04365527 8.87694705,7.11142065"/>
      <path fill="#EDF2F4" d="M12.9259959,7.61492816 C12.3716823,7.01615472 12.1300216,7.03766753 12.0934498,7.0717295 C12.0565195,7.10543291 12.0113426,7.33777135 12.5652976,7.93654479 C13.1206869,8.53603533 14.052909,9.28396431 14.1034642,9.23699466 C14.1543778,9.19361048 13.4813852,8.21262596 12.9259959,7.61492816"/>
      <path fill="#809091" d="M14.1035359,9.23713808 L12.0935215,7.07187291 C12.1300933,7.03745241 12.371754,7.01629813 12.9260676,7.61507158 C13.4814569,8.21276938 14.1544495,9.1937539 14.1035359,9.23713808"/>
      <polygon fill="#EDF2F4" points="12.032 6.573 11.473 14.14 12.405 14.14"/>
      <polygon fill="#809091" points="12.032 6.573 11.938 14.14 12.405 14.14"/>
      <path fill="#BDD4D6" d="M12.4046327,6.9286334 C12.4046327,7.14125175 12.2285862,7.3133543 12.0113067,7.3133543 C11.7947443,7.3133543 11.6183392,7.14125175 11.6183392,6.9286334 C11.6183392,6.71386376 11.7947443,6.54176122 12.0113067,6.54176122 C12.2285862,6.54176122 12.4046327,6.71386376 12.4046327,6.9286334"/>
      <path fill="#809091" d="M12.254796,6.9286334 C12.254796,7.05950304 12.1454391,7.16563295 12.0113426,7.16563295 C11.877246,7.16563295 11.7686063,7.05950304 11.7686063,6.9286334 C11.7686063,6.79453683 11.877246,6.68804838 12.0113426,6.68804838 C12.1454391,6.68804838 12.254796,6.79453683 12.254796,6.9286334"/>
      <path fill="#EDF2F4" d="M6.5527159,4.27699927 C6.0435792,5.38598505 5.66531215,5.47382906 5.58965873,5.4451453 C5.51400532,5.41646154 5.3160874,5.11456499 5.82629974,4.00522066 C6.33579498,2.89515924 7.33147993,1.38890341 7.43402436,1.42834357 C7.53621025,1.46527391 7.06149406,3.16693784 6.5527159,4.27699927"/>
      <path fill="#809091" d="M7.43402436,1.42823601 L5.58965873,5.44503774 C5.66531215,5.4737215 6.0435792,5.38587749 6.5527159,4.2768917 C7.06149406,3.16718882 7.53621025,1.46552489 7.43402436,1.42823601"/>
      <path fill="#EDF2F4" d="M3.66752427,5.41495565 C4.99522371,5.36045651 5.24369676,5.63151802 5.24766822,5.70573724 C5.25050915,5.77959792 5.03036131,6.06894532 3.70266188,6.12380301 C2.37496244,6.18081198 0.442394257,6.00476542 0.437003138,5.90508936 C0.431279301,5.80648894 2.3380321,5.47088897 3.66752427,5.41495565"/>
      <path fill="#809091" d="M0.437073188,5.90516107 L5.24771249,5.7054504 C5.24340992,5.63158973 4.99529542,5.36016967 3.66759598,5.41502736 C2.33810381,5.47096068 0.430992463,5.80656065 0.437073188,5.90516107"/>
      <path fill="#EDF2F4" d="M6.97286124,6.6527315 C6.07756945,5.7656863 5.69033872,5.79831407 5.6283101,5.84779355 C5.56843275,5.89691449 5.49600627,6.24327086 6.3916566,7.13067462 C7.28694839,8.01915402 8.79069439,9.13136672 8.87100891,9.06288425 C8.95275762,8.9976287 7.86958722,7.53977671 6.97286124,6.6527315"/>
      <path fill="#809091" d="M8.87100891,9.06274083 L5.6283101,5.84765013 C5.69033872,5.7985292 6.07756945,5.76590142 6.97286124,6.65258809 C7.86958722,7.53963329 8.95311617,8.99748528 8.87100891,9.06274083"/>
      <polygon fill="#EDF2F4" points="5.529 5.106 4.629 16.337 6.131 16.337"/>
      <polygon fill="#809091" points="5.529 5.106 5.379 16.337 6.131 16.337"/>
      <path fill="#BDD4D6" d="M6.13113637,5.63485251 C6.13113637,5.94965675 5.84537444,6.20673493 5.49614968,6.20673493 C5.14692493,6.20673493 4.86152154,5.94965675 4.86152154,5.63485251 C4.86152154,5.31789698 5.14692493,5.06117735 5.49614968,5.06117735 C5.84537444,5.06117735 6.13113637,5.31789698 6.13113637,5.63485251"/>
      <path fill="#809091" d="M5.88811323,5.63485251 C5.88811323,5.8302606 5.71350086,5.98622854 5.49586285,5.98622854 C5.27930048,5.98622854 5.10432955,5.8302606 5.10432955,5.63485251 C5.10432955,5.43836876 5.27930048,5.279891 5.49586285,5.279891 C5.71350086,5.279891 5.88811323,5.43836876 5.88811323,5.63485251"/>
      <path fill="#EDF2F4" d="M16.8140076,8.42481406 C16.6107114,8.9059841 16.462273,8.94434862 16.4307208,8.93179948 C16.4006029,8.91996743 16.3217226,8.78873924 16.5246601,8.30685211 C16.7286734,7.82639916 17.1252263,7.17276803 17.1661007,7.18890265 C17.206975,7.20575435 17.0173037,7.94364402 16.8140076,8.42481406"/>
      <path fill="#809091" d="M17.1662441,7.18879508 L16.4305057,8.93169191 C16.4620578,8.94424106 16.6104963,8.90587653 16.814151,8.4247065 C17.0174471,7.94353646 17.2067599,7.20564679 17.1662441,7.18879508"/>
      <path fill="#EDF2F4" d="M15.6637889,8.91813884 C16.1933627,8.89519183 16.2926803,9.01207815 16.2941317,9.04398883 C16.2955486,9.07625805 16.2084217,9.20210804 15.6770551,9.22648923 C15.1481983,9.25122898 14.3776809,9.17485847 14.3751649,9.13147429 C14.3726612,9.08773156 15.134215,8.94287858 15.6637889,8.91813884"/>
      <path fill="#809091" d="M14.3752366,9.13140258 L16.2941862,9.04391712 C16.292752,9.01200644 16.1930759,8.89512012 15.6638606,8.91806713 C15.1342867,8.94316542 14.3727329,9.08765985 14.3752366,9.13140258"/>
      <path fill="#EDF2F4" d="M16.9820585,9.4559593 C16.6256628,9.0712384 16.4700534,9.08486318 16.4456722,9.10601745 C16.4223667,9.12860591 16.3918902,9.27704436 16.7500786,9.66319945 C17.1089841,10.0482789 17.7081161,10.530166 17.7393097,10.5011237 C17.772296,10.4710058 17.3395299,9.8406802 16.9820585,9.4559593"/>
      <path fill="#809091" d="M17.7394173,10.5011596 L16.4457798,9.10605331 C16.470161,9.08489904 16.6257704,9.07127425 16.9821661,9.45599515 C17.3396374,9.84071605 17.7724036,10.4710416 17.7394173,10.5011596"/>
      <polygon fill="#EDF2F4" points="16.406 8.785 16.047 13.657 16.646 13.657"/>
      <polygon fill="#809091" points="16.406 8.785 16.348 13.657 16.646 13.657"/>
      <path fill="#BDD4D6" d="M16.6462793,9.01372746 C16.6462793,9.14997531 16.533337,9.26220051 16.3920695,9.26220051 C16.2540289,9.26220051 16.1414451,9.14997531 16.1414451,9.01372746 C16.1414451,8.87712107 16.2540289,8.76561296 16.3920695,8.76561296 C16.533337,8.76561296 16.6462793,8.87712107 16.6462793,9.01372746"/>
      <path fill="#809091" d="M16.5496509,9.01372746 C16.5496509,9.09870309 16.4797342,9.16646847 16.3922487,9.16646847 C16.3076317,9.16646847 16.2366394,9.09870309 16.2366394,9.01372746 C16.2366394,8.92946892 16.3076317,8.85919372 16.3922487,8.85919372 C16.4797342,8.85919372 16.5496509,8.92946892 16.5496509,9.01372746"/>
      <path fill="#7AA102" d="M10.1868404,12.5652428 C10.1868404,13.5666645 9.21768798,13.8287623 9.21768798,13.8287623 C9.21768798,13.8287623 8.24889406,13.5666645 8.24889406,12.5652428 C8.24889406,11.563104 9.21768798,10.1981157 9.21768798,10.1981157 C9.21768798,10.1981157 10.1868404,11.563104 10.1868404,12.5652428"/>
      <path fill="#4D5E08" d="M9.21765213,10.1982591 L9.21765213,13.8289057 C9.21765213,13.8289057 10.1868046,13.5668079 10.1868046,12.5653862 C10.1868046,11.5632474 9.21765213,10.1982591 9.21765213,10.1982591"/>
      <path fill="#90654F" d="M9.30097844,14.5305822 C9.30097844,14.5843642 9.26548229,14.6284655 9.21887119,14.6284655 C9.17405282,14.6284655 9.13748102,14.5843642 9.13748102,14.5305822 L9.13748102,12.1720602 C9.13748102,12.1179196 9.17405282,12.0720256 9.21887119,12.0720256 C9.26548229,12.0720256 9.30097844,12.1179196 9.30097844,12.1720602 L9.30097844,14.5305822 Z"/>
      <path fill="#90654F" d="M9.21905046,12.0718822 L9.21905046,14.6286806 C9.26566157,14.6286806 9.30115772,14.5845793 9.30115772,14.5304387 L9.30115772,12.1719168 C9.30115772,12.1177762 9.26566157,12.0718822 9.21905046,12.0718822"/>
      <path fill="#DDF8FF" d="M18.0831579,3.46933799 C18.0401323,3.46933799 18.0006921,3.47543329 17.9626861,3.48439696 C17.8547635,3.2007863 17.5951755,3 17.2922033,3 C17.045523,3 16.8271679,3.13373802 16.6959397,3.33990253 C16.6564995,3.32914612 16.6138324,3.32376792 16.5704482,3.32376792 C16.2549269,3.32376792 16,3.59877344 16,3.93795888 C16,4.22407936 16.1814248,4.46466438 16.4288222,4.53278831 L16.4288222,4.55214984 L18.0831579,4.55214984 C18.3610318,4.55214984 18.5876335,4.31048918 18.5876335,4.01146101 C18.5876335,3.71099865 18.3610318,3.46933799 18.0831579,3.46933799"/>
      <path fill="#D2F6FF" d="M4.60360137,1.73087068 C4.52459929,1.73087068 4.44559721,1.7412681 4.37213914,1.76206292 C4.16493193,1.20753427 3.66319943,0.82352318 3.07899985,0.82352318 C2.59875037,0.82352318 2.17740594,1.08207216 1.92653969,1.47786699 C1.84615161,1.45915165 1.76507053,1.44598159 1.68398945,1.44598159 C1.07206984,1.44598159 0.577960345,1.9783291 0.577960345,2.63613871 C0.577960345,3.1899742 0.9320837,3.6516193 1.40678917,3.78401301 L1.40678917,3.82352318 L4.60360137,3.82352318 C5.14136991,3.82352318 5.57796035,3.35771911 5.57796035,2.77615719 C5.57796035,2.19806107 5.14136991,1.73087068 4.60360137,1.73087068" transform="translate(7.422 .176)"/>
    </g>
    <path fill="#231E20" d="M16.0008365,11.7486537 C13.5016166,11.7486537 11.0021067,11.8779937 8.51825675,12.1369637 C7.45656679,12.2518036 6.35630682,13.3248036 6.11792682,14.4801636 C5.18499685,19.1700434 4.81321686,23.4104233 4.98315686,27.4402632 C5.04956685,28.7577332 6.39864682,30.1291431 7.65521678,30.1526331 C12.7499366,30.2210731 18.2271665,29.6665931 24.4003963,28.4622232 C25.4826763,28.2444332 26.4802762,27.1899932 26.6235362,26.1111932 C27.1220462,22.2347634 27.1933862,18.5448035 26.8421962,14.8328036 C26.7186562,13.6185736 25.5351663,12.3779536 24.3597963,12.2335336 C21.5885564,11.9104737 18.7946965,11.7486537 16.0008365,11.7486537 M8.48171676,31.2479631 C8.19896676,31.2479631 7.91824677,31.2459331 7.63810678,31.2424531 C5.80791683,31.2082331 3.98990689,29.3847132 3.89420689,27.4907232 C3.72049689,23.3683733 4.09865688,19.0433135 5.04985685,14.2635336 C5.38683684,12.6285136 6.8597468,11.2199837 8.40341676,11.0532337 C13.7452166,10.4961437 19.1566164,10.5292037 24.4894263,11.1512537 C26.1780962,11.3586037 27.7510562,12.9956536 27.9267962,14.7263736 C28.2863962,18.5236335 28.2133162,22.2924734 27.7040762,26.2527132 C27.4973062,27.8108832 26.1688162,29.2191232 24.6135463,29.5308732 L24.6109363,29.5314532 C18.7013165,30.6847831 13.4140366,31.2479631 8.48171676,31.2479631"/>
    <path fill="#231E20" d="M16.0008365,11.7486537 C13.5016166,11.7486537 11.0021067,11.8779937 8.51825675,12.1369637 C7.45656679,12.2518036 6.35630682,13.3248036 6.11792682,14.4801636 C5.18499685,19.1700434 4.81321686,23.4104233 4.98315686,27.4402632 C5.04956685,28.7577332 6.39864682,30.1291431 7.65521678,30.1526331 C12.7499366,30.2210731 18.2271665,29.6665931 24.4003963,28.4622232 C25.4826763,28.2444332 26.4802762,27.1899932 26.6235362,26.1111932 C27.1220462,22.2347634 27.1933862,18.5448035 26.8421962,14.8328036 C26.7186562,13.6185736 25.5351663,12.3779536 24.3597963,12.2335336 C21.5885564,11.9104737 18.7946965,11.7486537 16.0008365,11.7486537 M8.48171676,31.2479631 C8.19896676,31.2479631 7.91824677,31.2459331 7.63810678,31.2424531 C5.80791683,31.2082331 3.98990689,29.3847132 3.89420689,27.4907232 C3.72049689,23.3683733 4.09865688,19.0433135 5.04985685,14.2635336 C5.38683684,12.6285136 6.8597468,11.2199837 8.40341676,11.0532337 C13.7452166,10.4961437 19.1566164,10.5292037 24.4894263,11.1512537 C26.1780962,11.3586037 27.7510562,12.9956536 27.9267962,14.7263736 C28.2863962,18.5236335 28.2133162,22.2924734 27.7040762,26.2527132 C27.4973062,27.8108832 26.1688162,29.2191232 24.6135463,29.5308732 L24.6109363,29.5314532 C18.7013165,30.6847831 13.4140366,31.2479631 8.48171676,31.2479631"/>
    <g transform="translate(9.28 .045)">
      <mask id="dibujos_40x40-f" fill="#fff">
        <use xlink:href="#dibujos_40x40-e"/>
      </mask>
      <path fill="#231E20" d="M8.25664776,8.39616676 C8.16239777,8.39616676 8.06814777,8.37180676 7.98375777,8.32279676 L0.281647992,3.86549689 C0.0212279994,3.71469689 -0.067801998,3.3814869 0.0827079976,3.12106691 C0.233507993,2.86035692 0.567007984,2.77132692 0.827427976,2.92212692 L8.26650776,7.22717679 L21.1271374,0.310096991 C21.3919074,0.167416995 21.7227974,0.266596992 21.8654774,0.531946985 C22.0078674,0.797006977 21.9086874,1.12760697 21.6433374,1.26999696 L8.51503775,8.33120676 C8.43412776,8.37441676 8.34538776,8.39616676 8.25664776,8.39616676" mask="url(#dibujos_40x40-f)"/>
    </g>
  </g>
</svg>
