<?xml version="1.0" encoding="UTF-8" standalone="no"?>
<svg width="23px" height="30px" viewBox="0 0 23 30" version="1.1" xmlns="http://www.w3.org/2000/svg" xmlns:xlink="http://www.w3.org/1999/xlink">
    <!-- Generator: Sketch 3.6.1 (26313) - http://www.bohemiancoding.com/sketch -->
    <title>agreement4</title>
    <desc>Created with Sketch.</desc>
    <defs></defs>
    <g id="Welcome" stroke="none" stroke-width="1" fill="none" fill-rule="evenodd">
        <g id="HD_DESK_INT_VIDEO_BOTONES" transform="translate(-558.000000, -2221.000000)" fill="#5C881A">
            <g id="Contenido" transform="translate(532.500000, 312.000000)">
                <g id="LISTADO-ICONOS-VERTICAL-Copy" transform="translate(26.000000, 1909.000000)">
                    <g id="lorem-ipsum-+-archive57">
                        <g id="agreement4">
                            <path d="M16.0444597,11.9220067 C16.0444597,12.2789899 15.7601946,12.5632181 15.4032483,12.5632181 L4.51575839,12.5632181 C4.15877517,12.5632181 3.87454698,12.278953 3.87454698,11.9220067 C3.87454698,11.5650604 4.15881208,11.2807953 4.51575839,11.2807953 L15.3668893,11.2807953 C15.7238356,11.2444362 16.0444597,11.5287013 16.0444597,11.9220067 L16.0444597,11.9220067 Z M3.65967785,7.92597987 L3.65967785,5.03390268 C3.65967785,4.46208725 4.12241611,3.96298993 4.7305906,3.96298993 L15.0462651,3.96298993 C15.6180805,3.96298993 16.1171779,4.42572819 16.1171779,5.03390268 L16.1171779,7.92597987 C16.1171779,8.4977953 15.6544396,8.99689262 15.0462651,8.99689262 L4.7305906,8.99689262 C4.12241611,8.99689262 3.65967785,8.53083221 3.65967785,7.92597987 L3.65967785,7.92597987 Z M4.97849664,7.67478859 L14.7950738,7.67478859 L14.7950738,5.28180872 L4.97849664,5.28180872 L4.97849664,7.67478859 L4.97849664,7.67478859 Z M20.4371141,22.5946644 L20.400755,28.0218725 C20.400755,29.1291443 19.6504664,29.1985403 19.5083523,29.1985403 C19.2935201,29.1985403 19.0456141,29.1258221 18.8307819,28.947349 L17.0459396,27.4467718 L15.3338154,28.8746309 C15.1553423,29.016745 14.8710772,29.2316141 14.5471678,29.2316141 C14.1538255,29.2316141 13.7605201,28.947349 13.6911242,28.3755705 L13.6911242,28.3028523 L13.6911242,27.2352617 L1.7657953,27.2352617 C0.800674497,27.2352617 0.0173120805,26.4486141 0.0173120805,25.4867785 L0.0173120805,1.74848322 C0.0173120805,0.783325503 0.803959732,0 1.7657953,0 L18.3647584,0 C19.3298792,0 20.1132416,0.786647651 20.1132416,1.74848322 L20.1132416,15.134745 C20.648698,15.5280872 21.0783624,16.0635067 21.3989866,16.668396 C22.4698255,18.6680336 22.0071242,21.1337315 20.4371141,22.5946644 L20.4371141,22.5946644 Z M20.2222819,17.3128926 C19.9380168,16.7774362 19.5083523,16.314698 19.009255,15.9907886 C18.9035,15.9180705 18.7944228,15.8850336 18.7249899,15.8123154 C18.6886309,15.8123154 18.6522718,15.7759564 18.6192349,15.7759564 C18.4771208,15.7032383 18.3680436,15.6702013 18.2258926,15.5974832 C18.2258926,15.5974832 18.2258926,15.5974832 18.1895336,15.5974832 C17.439245,15.3462919 16.5832013,15.3462919 15.8328758,15.6338423 L15.7965168,15.6338423 C15.6544027,15.7065604 15.5122517,15.7395973 15.3668523,15.8486745 C14.1538255,16.4898859 13.476255,17.7392718 13.476255,19.0250168 L13.476255,19.0250168 C13.476255,19.5968322 13.6183691,20.1686477 13.9059195,20.7371409 C13.9786376,20.879255 14.0480336,20.9883322 14.1571107,21.1304832 C14.1934698,21.1668423 14.1934698,21.2032013 14.2298289,21.2362383 C14.302547,21.3419933 14.371943,21.4147114 14.4446611,21.4874295 C14.4810201,21.5237886 14.4810201,21.5237886 14.5173792,21.5601477 C14.6231342,21.6659027 14.7322114,21.7749799 14.8380034,21.8444128 L14.8743624,21.8807718 C14.9801174,21.9534899 15.0528356,22.0228859 15.1586275,22.095604 L15.1949866,22.1319631 C15.2313456,22.1319631 15.2313456,22.1683221 15.2677047,22.1683221 C15.3040638,22.1683221 15.3404228,22.2046812 15.3734597,22.2046812 C15.4098188,22.2410403 15.4792148,22.2410403 15.5155738,22.2773993 C16.3352584,22.6707416 17.264057,22.7401376 18.1564597,22.4922315 C18.1928188,22.4922315 18.2622148,22.4558725 18.2985738,22.4558725 C18.3349329,22.4558725 18.3349329,22.4558725 18.3712919,22.4195134 C18.407651,22.4195134 18.4440101,22.3831544 18.477047,22.3831544 C18.582802,22.3467953 18.6918792,22.2773993 18.7976711,22.2410403 C18.9034262,22.1683221 19.0125034,22.1352852 19.0819362,22.0625671 C19.1876913,21.989849 19.2604094,21.920453 19.3662013,21.8477349 C20.6519463,20.7404262 21.0783255,18.8465067 20.2222819,17.3128926 L20.2222819,17.3128926 Z M13.6911242,25.8437248 L13.6911242,23.308594 L4.51575839,23.308594 C4.15877517,23.308594 3.87454698,23.0243289 3.87454698,22.6673826 C3.87454698,22.3103993 4.15881208,22.0261711 4.51575839,22.0261711 L13.1193087,22.0261711 C13.0829497,21.953453 13.0465906,21.9204161 12.9771946,21.847698 C12.9408356,21.8113389 12.9044765,21.7749799 12.9044765,21.741943 C12.8317584,21.6692248 12.7987215,21.5634698 12.7260034,21.4576779 L12.6896443,21.4213188 C12.6169262,21.2792047 12.5475302,21.1370537 12.4748121,20.9585805 L12.4748121,20.9585805 C12.332698,20.5652383 12.2236208,20.1719329 12.1541879,19.7819128 L4.51575839,19.7819128 C4.15877517,19.7819128 3.87454698,19.4976477 3.87454698,19.1407013 C3.87454698,18.7837181 4.15881208,18.4994899 4.51575839,18.4994899 L12.1541879,18.4994899 C12.190547,18.2482987 12.226906,18.0003926 12.296302,17.7492013 C12.4747752,17.213745 12.7259664,16.7146477 13.0465906,16.2849832 L4.51575839,16.2849832 C4.15877517,16.2849832 3.87454698,16.0007181 3.87454698,15.6437718 C3.87454698,15.2868255 4.15881208,15.0025604 4.51575839,15.0025604 L14.4744497,15.0025604 C14.5471678,14.9662013 14.6165638,14.9298423 14.6892819,14.8604463 C14.831396,14.7877282 14.973547,14.7183322 15.1520201,14.6456141 L15.1883792,14.6456141 C15.7601946,14.3944228 16.401406,14.2886309 17.0459396,14.2886309 C17.6541141,14.2886309 18.2226074,14.3943859 18.7580638,14.609255 L18.7580638,14.609255 L18.7580638,1.74848322 C18.7580638,1.49729195 18.5795906,1.31881879 18.3283993,1.31881879 L1.7657953,1.31881879 C1.51460403,1.31881879 1.33613087,1.49729195 1.33613087,1.74848322 L1.33613087,25.3809866 C1.33613087,25.6321779 1.51460403,25.810651 1.7657953,25.810651 L13.687802,25.810651 L13.687802,25.8436879 L13.6911242,25.8436879 L13.6911242,25.8437248 Z M19.1150101,23.5234262 C19.078651,23.5234262 19.078651,23.5234262 19.0422919,23.5597852 C19.0422919,23.5597852 19.0059329,23.5597852 19.0059329,23.5961443 L18.9695738,23.5961443 C18.8968557,23.6325034 18.8274597,23.6325034 18.7547416,23.6688624 C18.7183826,23.6688624 18.7183826,23.6688624 18.6820235,23.7052215 C18.6456644,23.7052215 18.6093054,23.7415805 18.5762685,23.7415805 C18.5762685,23.7415805 18.5762685,23.7415805 18.5399094,23.7415805 C18.5399094,23.7415805 18.5399094,23.7415805 18.5035503,23.7415805 C18.4671913,23.7415805 18.4671913,23.7415805 18.4308322,23.7779396 L18.3944732,23.7779396 C18.3581141,23.7779396 18.321755,23.7779396 18.2887181,23.8142987 C18.2523591,23.8142987 18.1829631,23.8506577 18.110245,23.8506577 C18.0738859,23.8506577 18.0044899,23.8870168 17.9681309,23.8870168 L17.9681309,23.8870168 C17.8954128,23.8870168 17.8260168,23.9233758 17.7169396,23.9233758 C17.6805805,23.9233758 17.6111846,23.9233758 17.5748255,23.9597349 L17.5384664,23.9597349 L17.4657483,23.9597349 L17.4657483,23.9597349 L17.3930302,23.9597349 L17.1087651,23.9597349 L17.1087651,23.9597349 L17.036047,23.9597349 L16.9633289,23.9597349 L16.9633289,23.9597349 C16.8575738,23.9597349 16.7121376,23.9597349 16.6063456,23.9233758 L16.6063456,23.9233758 L16.5699866,23.9233758 L16.5336275,23.9233758 C16.0708893,23.8870168 15.6048658,23.7449027 15.2115235,23.5663926 L15.2115235,23.5663926 C15.1751644,23.5300336 15.1057685,23.5300336 15.0694094,23.4936745 L15.0694094,23.4936745 L15.0330503,27.3839463 L16.6393826,26.0288054 C16.7451376,25.9230503 16.9236477,25.8866913 17.0690839,25.8866913 C17.2145201,25.8866913 17.3897081,25.9230503 17.4987852,26.0288054 L19.1051174,27.3839463 L19.1150101,23.5234262 L19.1150101,23.5234262 Z" id="Shape"></path>
                        </g>
                    </g>
                </g>
            </g>
        </g>
    </g>
</svg>