<?xml version="1.0" encoding="UTF-8" standalone="no"?>
<svg width="12px" height="24px" viewBox="0 0 12 24" version="1.1" xmlns="http://www.w3.org/2000/svg" xmlns:xlink="http://www.w3.org/1999/xlink">
    <!-- Generator: Sketch 41.2 (35397) - http://www.bohemiancoding.com/sketch -->
    <title>Facebook</title>
    <desc>Created with Sketch.</desc>
    <defs></defs>
    <g id="Symbols" stroke="none" stroke-width="1" fill="none" fill-rule="evenodd">
        <g id="footer" transform="translate(-1057.000000, -119.000000)" fill="#427314">
            <g id="RRSS">
                <g transform="translate(1003.000000, 118.000000)">
                    <g id="Facebook" transform="translate(54.400000, 1.000000)">
                        <path d="M2.45684252,7.88909482 L2.45684252,5.49081877 C2.45684252,4.4355773 2.48395778,2.80474958 3.24828048,1.79528093 C4.05354904,0.726060945 5.15908723,0 7.06088589,0 C10.1589406,0 11.4649315,0.442927326 11.4649315,0.442927326 L10.8507436,4.09762594 C10.8507436,4.09762594 9.82709712,3.8005138 8.87169375,3.8005138 C7.91629038,3.8005138 7.06088589,4.14312467 7.06088589,5.10243509 L7.06088589,7.88909482 L10.9778577,7.88909482 L10.7048853,11.456816 L7.06088589,11.456816 L7.06088589,23.8547611 L2.45684252,23.8547611 L2.45684252,11.456816 L0,11.456816 L0,7.88909482 L2.45684252,7.88909482 Z" id="Imported-Layers-Copy"></path>
                    </g>
                </g>
            </g>
        </g>
    </g>
</svg>