<?xml version="1.0" encoding="utf-8" ?>
<svg xmlns="http://www.w3.org/2000/svg" xmlns:xlink="http://www.w3.org/1999/xlink" width="22" height="18">
	<defs>
		<clipPath id="clip_0">
			<rect x="-277" y="-78" width="320" height="568" clip-rule="evenodd"/>
		</clipPath>
	</defs>
	<g clip-path="url(#clip_0)">
		<path fill="rgb(65,115,20)" stroke="none" d="M1.71429 0L20.2857 0Q20.3736 0 20.4601 0.00798964Q20.5466 0.0159793 20.631 0.0318934Q20.7155 0.0478075 20.7972 0.0715163Q20.8789 0.0952251 20.9571 0.126535Q21.0354 0.157845 21.1096 0.196501Q21.1839 0.235157 21.2534 0.280844Q21.323 0.326531 21.3873 0.378875Q21.4516 0.43122 21.5102 0.489796Q21.5688 0.548372 21.6211 0.612701Q21.6735 0.67703 21.7192 0.746588Q21.7648 0.816146 21.8035 0.890365Q21.8422 0.964584 21.8735 1.04286Q21.9048 1.12113 21.9285 1.20283Q21.9522 1.28452 21.9681 1.36896Q21.984 1.45341 21.992 1.53992Q22 1.62642 22 1.71429L22 1.71429Q22 1.80215 21.992 1.88866Q21.984 1.97516 21.9681 2.05961Q21.9522 2.14405 21.9285 2.22574Q21.9048 2.30744 21.8735 2.38571Q21.8422 2.46399 21.8035 2.53821Q21.7648 2.61243 21.7192 2.68198Q21.6735 2.75154 21.6211 2.81587Q21.5688 2.8802 21.5102 2.93878Q21.4516 2.99735 21.3873 3.0497Q21.323 3.10204 21.2534 3.14773Q21.1839 3.19341 21.1096 3.23207Q21.0354 3.27073 20.9571 3.30204Q20.8789 3.33335 20.7972 3.35706Q20.7155 3.38076 20.631 3.39668Q20.5466 3.41259 20.4601 3.42058Q20.3736 3.42857 20.2857 3.42857L1.71429 3.42857Q1.62642 3.42857 1.53992 3.42058Q1.45341 3.41259 1.36896 3.39668Q1.28452 3.38076 1.20283 3.35706Q1.12113 3.33335 1.04286 3.30204Q0.964584 3.27073 0.890365 3.23207Q0.816146 3.19341 0.746588 3.14773Q0.67703 3.10204 0.612701 3.0497Q0.548372 2.99735 0.489796 2.93878Q0.43122 2.8802 0.378875 2.81587Q0.326531 2.75154 0.280844 2.68198Q0.235157 2.61243 0.196501 2.53821Q0.157845 2.46399 0.126535 2.38571Q0.0952251 2.30744 0.0715163 2.22574Q0.0478075 2.14405 0.0318934 2.05961Q0.0159793 1.97516 0.00798964 1.88866Q0 1.80215 0 1.71429L0 1.71429Q0 1.62642 0.00798964 1.53992Q0.0159793 1.45341 0.0318934 1.36896Q0.0478075 1.28452 0.0715163 1.20283Q0.0952251 1.12113 0.126535 1.04286Q0.157845 0.964584 0.196501 0.890365Q0.235157 0.816146 0.280844 0.746588Q0.326531 0.67703 0.378875 0.612701Q0.43122 0.548372 0.489796 0.489796Q0.548372 0.43122 0.612701 0.378875Q0.67703 0.326531 0.746588 0.280844Q0.816146 0.235157 0.890365 0.196501Q0.964584 0.157845 1.04286 0.126535Q1.12113 0.0952251 1.20283 0.0715163Q1.28452 0.0478075 1.36896 0.0318934Q1.45341 0.0159793 1.53992 0.00798964Q1.62642 0 1.71429 0Z"/>
	</g>
	<defs>
		<clipPath id="clip_1">
			<rect x="-277" y="-78" width="320" height="568" clip-rule="evenodd"/>
		</clipPath>
	</defs>
	<g clip-path="url(#clip_1)">
		<path fill="rgb(65,115,20)" stroke="none" transform="translate(0 7.71429)" d="M1.71429 0L20.2857 0Q20.3736 0 20.4601 0.00798964Q20.5466 0.0159793 20.631 0.0318934Q20.7155 0.0478075 20.7972 0.0715163Q20.8789 0.0952251 20.9571 0.126535Q21.0354 0.157845 21.1096 0.196501Q21.1839 0.235157 21.2534 0.280844Q21.323 0.326531 21.3873 0.378875Q21.4516 0.43122 21.5102 0.489796Q21.5688 0.548372 21.6211 0.612701Q21.6735 0.67703 21.7192 0.746588Q21.7648 0.816146 21.8035 0.890365Q21.8422 0.964584 21.8735 1.04286Q21.9048 1.12113 21.9285 1.20283Q21.9522 1.28452 21.9681 1.36896Q21.984 1.45341 21.992 1.53991Q22 1.62642 22 1.71429L22 1.71429Q22 1.80215 21.992 1.88866Q21.984 1.97516 21.9681 2.05961Q21.9522 2.14405 21.9285 2.22574Q21.9048 2.30744 21.8735 2.38571Q21.8422 2.46399 21.8035 2.53821Q21.7648 2.61243 21.7192 2.68198Q21.6735 2.75154 21.6211 2.81587Q21.5688 2.8802 21.5102 2.93878Q21.4516 2.99735 21.3873 3.0497Q21.323 3.10204 21.2534 3.14773Q21.1839 3.19341 21.1096 3.23207Q21.0354 3.27073 20.9571 3.30204Q20.8789 3.33335 20.7972 3.35705Q20.7155 3.38076 20.631 3.39668Q20.5466 3.41259 20.4601 3.42058Q20.3736 3.42857 20.2857 3.42857L1.71429 3.42857Q1.62642 3.42857 1.53992 3.42058Q1.45341 3.41259 1.36896 3.39668Q1.28452 3.38076 1.20283 3.35705Q1.12113 3.33335 1.04286 3.30204Q0.964584 3.27073 0.890365 3.23207Q0.816146 3.19341 0.746588 3.14773Q0.67703 3.10204 0.612701 3.0497Q0.548372 2.99735 0.489796 2.93877Q0.43122 2.8802 0.378875 2.81587Q0.326531 2.75154 0.280844 2.68198Q0.235157 2.61243 0.196501 2.53821Q0.157845 2.46399 0.126535 2.38571Q0.0952251 2.30744 0.0715163 2.22574Q0.0478075 2.14405 0.0318934 2.05961Q0.0159793 1.97516 0.00798964 1.88866Q0 1.80215 0 1.71429L0 1.71429Q0 1.62642 0.00798964 1.53992Q0.0159793 1.45341 0.0318934 1.36896Q0.0478075 1.28452 0.0715163 1.20283Q0.0952251 1.12113 0.126535 1.04286Q0.157845 0.964584 0.196501 0.890365Q0.235157 0.816146 0.280844 0.746588Q0.326531 0.67703 0.378875 0.612701Q0.43122 0.548372 0.489796 0.489796Q0.548372 0.43122 0.612701 0.378875Q0.67703 0.326531 0.746588 0.280844Q0.816146 0.235157 0.890365 0.196501Q0.964584 0.157845 1.04286 0.126535Q1.12113 0.0952251 1.20283 0.0715163Q1.28452 0.0478075 1.36896 0.0318934Q1.45341 0.0159793 1.53991 0.00798964Q1.62642 0 1.71429 0Z"/>
	</g>
	<defs>
		<clipPath id="clip_2">
			<rect x="-277" y="-78" width="320" height="568" clip-rule="evenodd"/>
		</clipPath>
	</defs>
	<g clip-path="url(#clip_2)">
		<path fill="rgb(65,115,20)" stroke="none" transform="translate(0 14.5714)" d="M1.71429 0L20.2857 0Q20.3736 0 20.4601 0.00798964Q20.5466 0.0159793 20.631 0.0318934Q20.7155 0.0478075 20.7972 0.0715163Q20.8789 0.0952251 20.9571 0.126535Q21.0354 0.157845 21.1096 0.196501Q21.1839 0.235157 21.2534 0.280844Q21.323 0.326531 21.3873 0.378875Q21.4516 0.43122 21.5102 0.489796Q21.5688 0.548372 21.6211 0.612701Q21.6735 0.67703 21.7192 0.746588Q21.7648 0.816146 21.8035 0.890365Q21.8422 0.964584 21.8735 1.04286Q21.9048 1.12113 21.9285 1.20283Q21.9522 1.28452 21.9681 1.36896Q21.984 1.45341 21.992 1.53992Q22 1.62642 22 1.71429L22 1.71429Q22 1.80215 21.992 1.88866Q21.984 1.97516 21.9681 2.05961Q21.9522 2.14405 21.9285 2.22574Q21.9048 2.30744 21.8735 2.38571Q21.8422 2.46399 21.8035 2.53821Q21.7648 2.61243 21.7192 2.68198Q21.6735 2.75154 21.6211 2.81587Q21.5688 2.8802 21.5102 2.93878Q21.4516 2.99735 21.3873 3.0497Q21.323 3.10204 21.2534 3.14773Q21.1839 3.19341 21.1096 3.23207Q21.0354 3.27073 20.9571 3.30204Q20.8789 3.33335 20.7972 3.35706Q20.7155 3.38076 20.631 3.39668Q20.5466 3.41259 20.4601 3.42058Q20.3736 3.42857 20.2857 3.42857L1.71429 3.42857Q1.62642 3.42857 1.53992 3.42058Q1.45341 3.41259 1.36896 3.39668Q1.28452 3.38076 1.20283 3.35706Q1.12113 3.33335 1.04286 3.30204Q0.964584 3.27073 0.890365 3.23207Q0.816146 3.19341 0.746588 3.14773Q0.67703 3.10204 0.612701 3.0497Q0.548372 2.99735 0.489796 2.93878Q0.43122 2.8802 0.378875 2.81587Q0.326531 2.75154 0.280844 2.68198Q0.235157 2.61243 0.196501 2.53821Q0.157845 2.46399 0.126535 2.38571Q0.0952251 2.30744 0.0715163 2.22574Q0.0478075 2.14405 0.0318934 2.05961Q0.0159793 1.97516 0.00798964 1.88866Q0 1.80215 0 1.71429L0 1.71429Q0 1.62642 0.00798964 1.53992Q0.0159793 1.45341 0.0318934 1.36896Q0.0478075 1.28452 0.0715163 1.20283Q0.0952251 1.12113 0.126535 1.04286Q0.157845 0.964584 0.196501 0.890365Q0.235157 0.816146 0.280844 0.746588Q0.326531 0.67703 0.378875 0.612701Q0.43122 0.548372 0.489796 0.489796Q0.548372 0.43122 0.612701 0.378875Q0.67703 0.326531 0.746588 0.280844Q0.816146 0.235157 0.890365 0.196501Q0.964584 0.157845 1.04286 0.126535Q1.12113 0.0952251 1.20283 0.0715163Q1.28452 0.0478075 1.36896 0.0318934Q1.45341 0.0159793 1.53992 0.00798964Q1.62642 0 1.71429 0Z"/>
	</g>
</svg>
