<svg xmlns="http://www.w3.org/2000/svg" width="19" height="14" viewBox="0 0 19 14">
    <path fill="#707070" fill-rule="nonzero" d="M9.467 0a.638.638 0 0 0-.348.13L.296 6.712a.613.613 0 0 0 .11 1.1.64.64 0 0 0 .651-.123l1.51-1.125v6.809c0 .34.282.617.63.617H7.4c.348 0 .63-.276.63-.617v-3.91h2.942v3.91c0 .34.282.617.63.617h2.1a.633.633 0 0 0 .554-.306.606.606 0 0 0 0-.622.633.633 0 0 0-.553-.306h-1.47v-3.91a.624.624 0 0 0-.631-.617H7.399a.624.624 0 0 0-.63.618v3.909H3.828V5.62L9.5 1.39l5.672 4.23v7.754a.615.615 0 0 0 .313.542c.196.112.439.112.635 0a.615.615 0 0 0 .313-.542V6.565l1.51 1.125a.64.64 0 0 0 .651.123.613.613 0 1 0 .11-1.1L9.881.129a.64.64 0 0 0-.414-.128z"/>
</svg>
