<svg xmlns="http://www.w3.org/2000/svg" width="25" height="24" viewBox="0 0 25 24">
    <path fill="#707070" fill-rule="evenodd" d="M21.632 0H3.496C1.934 0 .6 1.477.6 3.045v18.269C.6 22.88 1.934 24 3.496 24h18.136c1.562 0 2.812-1.119 2.812-2.686V3.045c0-1.568-1.25-3.045-2.812-3.045zm-.561 3.428c.452 0 .818.37.818.824v2.639a.821.821 0 01-.818.824H18.45a.821.821 0 01-.819-.824V4.252c0-.455.367-.824.819-.824h2.62zm-8.48 4.185c2.527 0 4.576 2.058 4.576 4.595s-2.049 4.594-4.576 4.594c-2.526 0-4.575-2.057-4.575-4.594 0-2.537 2.049-4.595 4.575-4.595zm9.298 13.088c0 .369-.389.728-.756.728H4.05c-.368 0-.897-.36-.897-.728V10.286h2.457c-.167.857-.257 1.257-.257 1.922 0 4.007 3.246 7.267 7.237 7.267 3.992 0 7.238-3.26 7.238-7.268 0-.664-.09-1.064-.256-1.921h2.316V20.7z"/>
</svg>
