<?xml version="1.0" encoding="UTF-8" standalone="no"?>
<svg width="25px" height="24px" viewBox="0 0 25 24" version="1.1" xmlns="http://www.w3.org/2000/svg" xmlns:xlink="http://www.w3.org/1999/xlink">
    <!-- Generator: Sketch 41.2 (35397) - http://www.bohemiancoding.com/sketch -->
    <title>Instagram</title>
    <desc>Created with Sketch.</desc>
    <defs></defs>
    <g id="Symbols" stroke="none" stroke-width="1" fill="none" fill-rule="evenodd">
        <g id="footer" transform="translate(-1197.000000, -118.000000)" fill="#427314">
            <g id="RRSS">
                <g transform="translate(1003.000000, 118.000000)">
                    <g id="Instagram" transform="translate(194.600000, 0.000000)">
                        <path d="M21.0317881,0 L2.89589404,0 C1.33350993,0 0,1.47728 0,3.04528 L0,21.31392 C0,22.88128 1.33350993,24 2.89589404,24 L21.0317881,24 C22.5941722,24 23.8437616,22.88128 23.8437616,21.31392 L23.8437616,3.04528 C23.8437616,1.47728 22.5941722,0 21.0317881,0 L21.0317881,0 Z M20.4708874,3.42848 C20.9229139,3.42848 21.2894305,3.79744 21.2894305,4.25248 L21.2894305,6.89072 C21.2894305,7.34576 20.9229139,7.71472 20.4708874,7.71472 L17.8496424,7.71472 C17.3976159,7.71472 17.0312583,7.34576 17.0312583,6.89072 L17.0312583,4.25248 C17.0312583,3.79744 17.3976159,3.42848 17.8496424,3.42848 L20.4708874,3.42848 L20.4708874,3.42848 Z M11.9914172,7.61312 C14.5184106,7.61312 16.5666755,9.67056 16.5666755,12.20752 C16.5666755,14.7448 14.5184106,16.80224 11.9914172,16.80224 C9.46490066,16.80224 7.41615894,14.7448 7.41615894,12.20752 C7.41615894,9.67056 9.46490066,7.61312 11.9914172,7.61312 L11.9914172,7.61312 Z M21.2894305,20.70112 C21.2894305,21.06976 20.9001854,21.4288 20.5328742,21.4288 L3.45059603,21.4288 C3.08344371,21.4288 2.55449007,21.06976 2.55449007,20.70112 L2.55449007,10.28576 L5.01139073,10.28576 C4.84418543,11.1432 4.75390728,11.54304 4.75390728,12.20752 C4.75390728,16.2152 8.00042384,19.47504 11.9914172,19.47504 C15.9825695,19.47504 19.229245,16.2144 19.229245,12.20672 C19.229245,11.54304 19.1389669,11.1432 18.9725563,10.28576 L21.2894305,10.28576 L21.2894305,20.70112 L21.2894305,20.70112 Z" id="Imported-Layers"></path>
                    </g>
                </g>
            </g>
        </g>
    </g>
</svg>