<svg xmlns="http://www.w3.org/2000/svg" xmlns:xlink="http://www.w3.org/1999/xlink" width="40" height="40" viewBox="0 0 40 40">
  <defs>
    <polygon id="juguetes_40x40-a" points="0 18.792 15.79 18.792 15.79 .028 0 .028"/>
    <path id="juguetes_40x40-c" d="M0.249750512,8.62130977 C0.249750512,13.0433544 3.6333322,16.6280775 7.80798968,16.6280775 L7.80798968,16.6280775 C11.9826472,16.6280775 15.3662288,13.0433544 15.3662288,8.62130977 L15.3662288,8.62130977 C15.3662288,4.19989808 11.9826472,0.615174945 7.80798968,0.615174945 L7.80798968,0.615174945 C3.6333322,0.615174945 0.249750512,4.19989808 0.249750512,8.62130977 L0.249750512,8.62130977 Z"/>
    <path id="juguetes_40x40-e" d="M0.249750512,8.62130977 C0.249750512,13.0433544 3.6333322,16.6280775 7.80798968,16.6280775 L7.80798968,16.6280775 C11.9826472,16.6280775 15.3662288,13.0433544 15.3662288,8.62130977 L15.3662288,8.62130977 C15.3662288,4.19989808 11.9826472,0.615174945 7.80798968,0.615174945 L7.80798968,0.615174945 C3.6333322,0.615174945 0.249750512,4.19989808 0.249750512,8.62130977"/>
    <path id="juguetes_40x40-g" d="M0.249750512,8.62130977 C0.249750512,13.0433544 3.6333322,16.6280775 7.80798968,16.6280775 L7.80798968,16.6280775 C11.9826472,16.6280775 15.3662288,13.0433544 15.3662288,8.62130977 L15.3662288,8.62130977 C15.3662288,4.19989808 11.9826472,0.615174945 7.80798968,0.615174945 L7.80798968,0.615174945 C3.6333322,0.615174945 0.249750512,4.19989808 0.249750512,8.62130977"/>
    <path id="juguetes_40x40-i" d="M0.249750512,8.62130977 C0.249750512,13.0433544 3.6333322,16.6280775 7.80798968,16.6280775 L7.80798968,16.6280775 C11.9826472,16.6280775 15.3662288,13.0433544 15.3662288,8.62130977 L15.3662288,8.62130977 C15.3662288,4.19989808 11.9826472,0.615174945 7.80798968,0.615174945 L7.80798968,0.615174945 C3.6333322,0.615174945 0.249750512,4.19989808 0.249750512,8.62130977 L0.249750512,8.62130977 Z"/>
  </defs>
  <g fill="none" fill-rule="evenodd">
    <g transform="translate(11 12)">
      <path fill="#F8E71C" d="M15.4560116,9.25781665 C14.8410092,4.92751322 10.9570701,1.93520026 6.78133716,2.5722491 C2.6056042,3.21055073 -0.281523663,7.23705014 0.334082802,11.5673536 C0.94848101,15.8970306 4.83302426,18.88997 9.00815308,18.2516683 C13.183886,17.6146195 16.0710139,13.5874937 15.4560116,9.25781665"/>
      <path fill="#B6BECB" d="M7.55576888,11.4905569 C7.00359586,11.4905569 6.55170809,11.9208938 6.55170809,11.5012057 L6.55170809,9.83435524 C6.55170809,9.41466722 7.00359586,9.55936563 7.55576888,9.55936563 C8.10733778,9.55936563 9.06367245,9.41466722 9.06367245,9.83435524 L9.06367245,11.4905569 C9.06367245,11.9096186 8.10733778,11.4905569 7.55576888,11.4905569"/>
      <path fill="#15171C" d="M8.98048402,9.83466844 C8.98048402,9.56093163 7.45566487,9.60477963 7.22609622,9.60477963 C6.99592344,9.60477963 6.80924787,9.56093163 6.80924787,9.83466844 L6.80924787,11.4507805 C6.80924787,11.7238909 6.99592344,11.5008925 7.22609622,11.5008925 C7.45566487,11.5008925 8.98048402,11.8065757 8.98048402,11.5340917 L8.98048402,9.83466844 Z M6.29392666,11.4908701 L6.29392666,9.83466844 C6.29392666,9.26652361 6.71137913,9.53524922 7.22609622,9.53524922 C7.73900092,9.53524922 9.49640936,9.26652361 9.49640936,9.83466844 L9.49640936,11.3173573 C9.49640936,11.8848757 7.73900092,11.5008925 7.22609622,11.5008925 C6.71137913,11.5008925 6.29392666,11.7182533 6.29392666,11.4908701 L6.29392666,11.4908701 Z"/>
      <mask id="juguetes_40x40-b" fill="#fff">
        <use xlink:href="#juguetes_40x40-a"/>
      </mask>
      <polygon fill="#969DA8" points="6.809 9.496 8.977 9.496 8.977 9.236 6.809 9.236" mask="url(#juguetes_40x40-b)"/>
      <g transform="translate(0 1.553)">
        <mask id="juguetes_40x40-d" fill="#fff">
          <use xlink:href="#juguetes_40x40-c"/>
        </mask>
        <path fill="#B6BECB" d="M13.9721669,16.2229607 C13.9721669,16.6470011 13.6453403,16.9931952 13.2450225,16.9931952 L2.37131538,16.9931952 C1.97159507,16.9931952 1.64417095,16.6470011 1.64417095,16.2229607 L1.64417095,10.2604472 C1.64417095,9.83577397 1.97159507,9.48957984 2.37131538,9.48957984 L13.2450225,9.48957984 C13.6453403,9.48957984 13.9721669,9.83577397 13.9721669,10.2604472 L13.9721669,16.2229607 Z" mask="url(#juguetes_40x40-d)"/>
        <mask id="juguetes_40x40-f" fill="#fff">
          <use xlink:href="#juguetes_40x40-e"/>
        </mask>
        <path fill="#969DA8" d="M13.245142,9.48976971 L12.0071442,9.48976971 C12.4068645,9.48976971 12.7342886,9.83596384 12.7342886,10.2606371 L12.7342886,16.2231506 C12.7342886,16.6471909 12.4068645,16.9927522 12.0071442,16.9927522 L13.245142,16.9927522 C13.6454598,16.9927522 13.9722864,16.6471909 13.9722864,16.2231506 L13.9722864,10.2606371 C13.9722864,9.83596384 13.6454598,9.48976971 13.245142,9.48976971" mask="url(#juguetes_40x40-f)"/>
        <mask id="juguetes_40x40-h" fill="#fff">
          <use xlink:href="#juguetes_40x40-g"/>
        </mask>
        <path fill="#969DA8" d="M2.8824077,16.2229607 L2.8824077,10.2604472 C2.8824077,9.83577397 3.20923433,9.48957984 3.60895464,9.48957984 L2.37155438,9.48957984 C1.97183406,9.48957984 1.64440995,9.83577397 1.64440995,10.2604472 L1.64440995,16.2229607 C1.64440995,16.6470011 1.97183406,16.9931952 2.37155438,16.9931952 L3.60895464,16.9931952 C3.20923433,16.9931952 2.8824077,16.6470011 2.8824077,16.2229607" mask="url(#juguetes_40x40-h)"/>
        <mask id="juguetes_40x40-j" fill="#fff">
          <use xlink:href="#juguetes_40x40-i"/>
        </mask>
        <path fill="#15171C" d="M2.37131538,9.75988973 C2.11021258,9.75988973 1.89870138,9.98393493 1.89870138,10.2605105 L1.89870138,16.3977033 C1.89870138,16.673646 2.11021258,16.8983241 2.37131538,16.8983241 L13.2450225,16.8983241 C13.5055278,16.8983241 13.717039,16.673646 13.717039,16.3977033 L13.717039,10.2605105 C13.717039,9.98393493 13.5055278,9.75988973 13.2450225,9.75988973 L2.37131538,9.75988973 Z M13.2450225,17.0881929 L2.37131538,17.0881929 C1.82999011,17.0881929 1.38964053,16.6217485 1.38964053,16.0483447 L1.38964053,10.2605105 C1.38964053,9.68647379 1.82999011,9.21939652 2.37131538,9.21939652 L13.2450225,9.21939652 C13.7863477,9.21939652 14.2272948,9.68647379 14.2272948,10.2605105 L14.2272948,16.0483447 C14.2272948,16.6217485 13.7863477,17.0881929 13.2450225,17.0881929 L13.2450225,17.0881929 Z" mask="url(#juguetes_40x40-j)"/>
      </g>
      <path fill="#B6BECB" d="M2.49734446,3.96761781 L1.85032334,3.96761781 L1.43468325,3.96761781 C1.08791376,3.96761781 0.803369457,4.26202583 0.803369457,4.62220584 L0.803369457,6.97997557 C0.803369457,7.33952919 1.08791376,7.6345636 1.43468325,7.6345636 L2.49734446,7.6345636 L2.49734446,3.96761781 Z"/>
      <path fill="#969DA8" d="M1.30503737,6.97972501 L1.30503737,4.62195528 C1.30503737,4.26177527 1.58837342,3.96736725 1.93514291,3.96736725 L1.84996086,3.96736725 L1.4349249,3.96736725 C1.08815541,3.96736725 0.803611108,4.26177527 0.803611108,4.62195528 L0.803611108,6.97972501 C0.803611108,7.33927863 1.08815541,7.63431304 1.4349249,7.63431304 L1.93514291,7.63431304 C1.58837342,7.63431304 1.30503737,7.33927863 1.30503737,6.97972501"/>
      <path fill="#B6BECB" d="M14.3557132,3.96761781 L13.9406772,3.96761781 L13.293052,3.96761781 L13.293052,7.6345636 L14.3557132,7.6345636 C14.7024827,7.6345636 14.9858187,7.33952919 14.9858187,6.97997557 L14.9858187,4.62220584 C14.9858187,4.26202583 14.7024827,3.96761781 14.3557132,3.96761781"/>
      <path fill="#969DA8" d="M14.3557132,3.96761781 L13.9406772,3.96761781 L13.854891,3.96761781 C14.2022647,3.96761781 14.4856007,4.26202583 14.4856007,4.62220584 L14.4856007,6.97997557 C14.4856007,7.33952919 14.2022647,7.6345636 13.854891,7.6345636 L14.3557132,7.6345636 C14.7024827,7.6345636 14.9858187,7.33952919 14.9858187,6.97997557 L14.9858187,4.62220584 C14.9858187,4.26202583 14.7024827,3.96761781 14.3557132,3.96761781"/>
      <path fill="#15171C" d="M2.52211371,7.36633911 L1.43468325,7.36633911 C1.22807146,7.36633911 1.06133213,7.1934527 1.06133213,6.97985029 L1.06133213,4.62208056 C1.06133213,4.40785175 1.22807146,4.23496534 1.43468325,4.23496534 L2.52211371,4.23496534 L2.52211371,3.70001972 L1.43468325,3.70001972 C0.944735416,3.70001972 0.546010915,4.11407014 0.546010915,4.62208056 L0.546010915,6.97985029 C0.546010915,7.48786072 0.944735416,7.90128474 1.43468325,7.90128474 L2.52211371,7.90128474 L2.52211371,7.36633911 Z"/>
      <polygon fill="#15171C" points="1.545 3.968 2.061 3.968 2.061 .958 1.545 .958"/>
      <polygon fill="#15171C" points="13.729 3.968 14.244 3.968 14.244 .958 13.729 .958"/>
      <path fill="#B6BECB" d="M13.2931728,8.30656556 C13.2931728,9.0707736 12.6896489,9.69654723 11.9520086,9.69654723 L3.83796497,9.69654723 C3.10032465,9.69654723 2.49740487,9.0707736 2.49740487,8.30656556 L2.49740487,3.29536529 C2.49740487,2.52990445 3.10032465,1.90475722 3.83796497,1.90475722 L11.9520086,1.90475722 C12.6896489,1.90475722 13.2931728,2.52990445 13.2931728,3.29536529 L13.2931728,8.30656556 Z"/>
      <path fill="#969DA8" d="M11.9521898 1.90494514L11.117889 1.90494514C11.8549252 1.90494514 12.4584491 2.53009237 12.4584491 3.29555321L12.4584491 8.30675348C12.4584491 9.07033512 11.8549252 9.69610875 11.117889 9.69610875L11.9521898 9.69610875C12.6898301 9.69610875 13.293354 9.07033512 13.293354 8.30675348L13.293354 3.29555321C13.293354 2.53009237 12.6898301 1.90494514 11.9521898 1.90494514M3.33212857 8.30656556L3.33212857 3.29536529C3.33212857 2.52990445 3.93444422 1.90475722 4.67268868 1.90475722L3.83778374 1.90475722C3.10014341 1.90475722 2.49722363 2.52990445 2.49722363 3.29536529L2.49722363 8.30656556C2.49722363 9.0707736 3.10014341 9.69654723 3.83778374 9.69654723L4.67268868 9.69654723C3.93444422 9.69654723 3.33212857 9.0707736 3.33212857 8.30656556"/>
      <path fill="#15171C" d="M13.0424597,8.30656556 C13.0424597,8.92983359 12.553116,9.43721762 11.9520086,9.43721762 L3.83796497,9.43721762 C3.23746171,9.43721762 2.748118,8.92983359 2.748118,8.30656556 L2.748118,3.29536529 C2.748118,2.67147086 3.23746171,2.16408683 3.83796497,2.16408683 L4.07478316,2.16408683 L4.29891466,2.16408683 L11.9520086,2.16408683 C12.553116,2.16408683 13.0424597,2.67147086 13.0424597,3.29536529 L13.0424597,8.30656556 Z M11.9520086,1.64480121 L4.29891466,1.64480121 L4.07478316,1.64480121 L3.83796497,1.64480121 C2.9613752,1.64480121 2.24729587,2.38583245 2.24729587,3.29536529 L2.24729587,8.30656556 C2.24729587,9.21609841 2.9613752,9.95650325 3.83796497,9.95650325 L11.9520086,9.95650325 C12.8292025,9.95650325 13.5432818,9.21609841 13.5432818,8.30656556 L13.5432818,3.29536529 C13.5432818,2.38583245 12.8292025,1.64480121 11.9520086,1.64480121 L11.9520086,1.64480121 Z"/>
      <path fill="#B6BECB" d="M5.90794926 4.5469752C5.90794926 4.22375278 5.65481962 3.96191757 5.34308955 3.96191757 5.03196362 3.96191757 4.77883397 4.22375278 4.77883397 4.5469752 4.77883397 4.87145042 5.03196362 5.13265923 5.34308955 5.13265923 5.65481962 5.13265923 5.90794926 4.87145042 5.90794926 4.5469752M11.0118041 4.5469752C11.0118041 4.22375278 10.7586745 3.96191757 10.4469444 3.96191757 10.1358185 3.96191757 9.88268882 4.22375278 9.88268882 4.5469752 9.88268882 4.87145042 10.1358185 5.13265923 10.4469444 5.13265923 10.7586745 5.13265923 11.0118041 4.87145042 11.0118041 4.5469752"/>
      <path fill="#15171C" d="M14.3557132 3.70033292L13.4609996 3.70033292 13.4609996 4.23527854 14.3557132 4.23527854C14.5611167 4.23527854 14.7284602 4.40816495 14.7284602 4.62239376L14.7284602 6.97953709C14.7284602 7.1931395 14.5611167 7.36665231 14.3557132 7.36665231L13.4609996 7.36665231 13.4609996 7.90097154 14.3557132 7.90097154C14.845661 7.90097154 15.2437814 7.48817392 15.2437814 6.97953709L15.2437814 4.62239376C15.2437814 4.11375694 14.845661 3.70033292 14.3557132 3.70033292M7.89498677 8.10167011C7.32529404 8.10167011 6.75499718 7.8774189 6.32062912 7.42641087 6.22276038 7.32493407 6.22276038 7.16081726 6.32062912 7.05934045 6.41910199 6.95849005 6.57677941 6.95849005 6.67464815 7.05934045 7.34764678 7.75715009 8.44232677 7.75715009 9.11592953 7.05934045 9.21319414 6.95849005 9.37147568 6.95849005 9.46934442 7.05934045 9.56781729 7.16081726 9.56781729 7.32493407 9.46934442 7.42641087 9.0355805 7.8774189 8.46528364 8.10167011 7.89498677 8.10167011"/>
      <path fill="#15171C" d="M15.1374549 7.15348838C15.5573238 8.15259643 15.7899131 9.25443409 15.7899131 10.4120214 15.7899131 14.92586 12.2485146 18.5984434 7.89516801 18.5984434 3.54182141 18.5984434-.00018123841 14.92586-.00018123841 10.4120214-.00018123841 9.22123489.246907127 8.08933003.689128846 7.06767157.748333393 6.93236917 1.14766202 7.30069239 1.05462631 7.538098.706044431 8.42570685.515139973 9.3960005.515139973 10.4120214.515139973 14.631452 3.82515746 18.0641242 7.89516801 18.0641242 11.9651786 18.0641242 15.2758002 14.631452 15.2758002 10.4120214 15.2758002 9.4172981 15.0915411 8.46642285 14.7568542 7.5938476 14.6626102 7.34704599 15.0601265 6.96932677 15.1374549 7.15348838M11.0093876 5.2650802C11.0093876 4.94248418 10.7580703 4.68190177 10.4469444 4.68190177 10.1364226 4.68190177 9.88510534 4.94248418 9.88510534 5.2650802 9.88510534 5.58704982 10.1364226 5.84888503 10.4469444 5.84888503 10.7580703 5.84888503 11.0093876 5.58704982 11.0093876 5.2650802M5.90619729 5.2650802C5.90619729 4.94248418 5.6542759 4.68190177 5.34314997 4.68190177 5.03323229 4.68190177 4.7813109 4.94248418 4.7813109 5.2650802 4.7813109 5.58704982 5.03323229 5.84888503 5.34314997 5.84888503 5.6542759 5.84888503 5.90619729 5.58704982 5.90619729 5.2650802M14.5492154.611115872C14.5492154.289146255 14.297294.0279374415 13.9861681.0279374415 13.6768545.0279374415 13.424329.289146255 13.424329.611115872 13.424329.933711889 13.6768545 1.1949207 13.9861681 1.1949207 14.297294 1.1949207 14.5492154.933711889 14.5492154.611115872M2.3663695.611115872C2.3663695.289146255 2.11444811.0279374415 1.80271805.0279374415 1.4934045.0279374415 1.24148311.289146255 1.24148311.611115872 1.24148311.933711889 1.4934045 1.1949207 1.80271805 1.1949207 2.11444811 1.1949207 2.3663695.933711889 2.3663695.611115872"/>
    </g>
    <g transform="translate(1 1)">
      <path fill="#8BC53F" d="M21.3360133,6.16257208 L15.1351832,11.9097822 C15.0504532,11.9885922 14.9612832,11.9671322 14.9154032,11.9475222 C14.8698932,11.9279122 14.7933032,11.8775922 14.7921932,11.7621522 L14.7655532,9.06670212 L14.0399832,9.31238212 C9.07236312,10.9958821 5.73496307,15.6401222 5.73496307,20.8697023 C5.73496307,21.0650623 5.73977307,21.2596823 5.74939307,21.4528223 C5.75309307,21.5349623 5.71424307,21.5886123 5.69093307,21.6134023 C5.66429307,21.6415223 5.61767307,21.6748223 5.54737307,21.6748223 L0.403263005,21.6748223 C0.292633004,21.6748223 0.202723003,21.5897223 0.198283003,21.4816823 C0.189773002,21.2785523 0.184963002,21.0746823 0.184963002,20.8697023 C0.184963002,12.5343422 6.10607308,5.23054207 14.2642032,3.50301205 L14.7089432,3.40903204 L14.6789732,0.392792005 C14.6774932,0.276982004 14.7533432,0.225552003 14.7984832,0.204832003 C14.8199432,0.195212003 14.8510232,0.184852002 14.8869132,0.184852002 C14.9268732,0.184852002 14.9731232,0.197802003 15.0186332,0.238132003 L21.3330533,5.86065208 C21.3915133,5.91282208 21.4007633,5.97720208 21.401145,6.01087208 C21.4015033,6.04454208 21.3933633,6.10929208 21.3360133,6.16257208"/>
      <path stroke="#000" stroke-width=".5" d="M21.3360133,6.16257208 L15.1351832,11.9097822 C15.0504532,11.9885922 14.9612832,11.9671322 14.9154032,11.9475222 C14.8698932,11.9279122 14.7933032,11.8775922 14.7921932,11.7621522 L14.7655532,9.06670212 L14.0399832,9.31238212 C9.07236312,10.9958821 5.73496307,15.6401222 5.73496307,20.8697023 C5.73496307,21.0650623 5.73977307,21.2596823 5.74939307,21.4528223 C5.75309307,21.5349623 5.71424307,21.5886123 5.69093307,21.6134023 C5.66429307,21.6415223 5.61767307,21.6748223 5.54737307,21.6748223 L0.403263005,21.6748223 C0.292633004,21.6748223 0.202723003,21.5897223 0.198283003,21.4816823 C0.189773002,21.2785523 0.184963002,21.0746823 0.184963002,20.8697023 C0.184963002,12.5343422 6.10607308,5.23054207 14.2642032,3.50301205 L14.7089432,3.40903204 L14.6789732,0.392792005 C14.6774932,0.276982004 14.7533432,0.225552003 14.7984832,0.204832003 C14.8199432,0.195212003 14.8510232,0.184852002 14.8869132,0.184852002 C14.9268732,0.184852002 14.9731232,0.197802003 15.0186332,0.238132003 L21.3330533,5.86065208 C21.3915133,5.91282208 21.4007633,5.97720208 21.401145,6.01087208 C21.4015033,6.04454208 21.3933633,6.10929208 21.3360133,6.16257208 Z"/>
      <path fill="#8BC53F" d="M27.6654184,35.3831745 C27.4941084,35.4919545 27.3198384,35.5981445 27.1422383,35.7006345 C19.9235383,39.8679445 10.6376481,38.3920145 5.06285807,32.1908144 L4.75908806,31.8526344 L2.16168803,33.3866544 C2.06215803,33.4454844 1.97964803,33.4058944 1.93931802,33.3770344 C1.89898802,33.3481744 1.83497802,33.2830544 1.85828802,33.1698344 L3.56990805,24.8903443 C3.58581805,24.8133843 3.63724805,24.7734243 3.66610805,24.7560343 C3.69533805,24.7386443 3.75453805,24.7134843 3.83038805,24.7367943 L11.9078582,27.2335544 C12.0181182,27.2675944 12.0443882,27.3552844 12.0499382,27.4044944 C12.0558582,27.4537044 12.0506782,27.5454644 11.9515182,27.6042944 L9.63050812,28.9747744 L10.2058581,29.4801944 C14.1478382,32.9411744 19.8388083,33.5094944 24.3672383,30.8939644 C24.5363283,30.7962844 24.7024583,30.6952744 24.8652583,30.5901944 C24.9344483,30.5457944 25.0003083,30.5520844 25.0336083,30.5602244 C25.0709783,30.5694744 25.1231483,30.5931544 25.1586683,30.6538344 L27.7305384,35.1086345 C27.7856684,35.2044645 27.7571784,35.3250845 27.6654184,35.3831745"/>
      <path stroke="#000" stroke-width=".5" d="M27.6654184,35.3831745 C27.4941084,35.4919545 27.3198384,35.5981445 27.1422383,35.7006345 C19.9235383,39.8679445 10.6376481,38.3920145 5.06285807,32.1908144 L4.75908806,31.8526344 L2.16168803,33.3866544 C2.06215803,33.4454844 1.97964803,33.4058944 1.93931802,33.3770344 C1.89898802,33.3481744 1.83497802,33.2830544 1.85828802,33.1698344 L3.56990805,24.8903443 C3.58581805,24.8133843 3.63724805,24.7734243 3.66610805,24.7560343 C3.69533805,24.7386443 3.75453805,24.7134843 3.83038805,24.7367943 L11.9078582,27.2335544 C12.0181182,27.2675944 12.0443882,27.3552844 12.0499382,27.4044944 C12.0558582,27.4537044 12.0506782,27.5454644 11.9515182,27.6042944 L9.63050812,28.9747744 L10.2058581,29.4801944 C14.1478382,32.9411744 19.8388083,33.5094944 24.3672383,30.8939644 C24.5363283,30.7962844 24.7024583,30.6952744 24.8652583,30.5901944 C24.9344483,30.5457944 25.0003083,30.5520844 25.0336083,30.5602244 C25.0709783,30.5694744 25.1231483,30.5931544 25.1586683,30.6538344 L27.7305384,35.1086345 C27.7856684,35.2044645 27.7571784,35.3250845 27.6654184,35.3831745 Z"/>
      <path fill="#8BC53F" d="M37.0969775,27.9273414 C37.0921675,27.9765514 37.0677475,28.0649814 36.9578575,28.1012414 L28.9318174,30.7585814 C28.8567074,30.7833714 28.7967674,30.7593214 28.7671674,30.7423014 C28.7379374,30.7256514 28.6861374,30.6868014 28.6687474,30.6098414 L26.7921073,22.3662413 C26.7665773,22.2537613 26.8294773,22.1871613 26.8690673,22.1575613 C26.8945973,22.1383213 26.9367773,22.1150113 26.9900573,22.1150113 C27.0207673,22.1150113 27.0548073,22.1227813 27.0914373,22.1435013 L29.4390874,23.4677313 L29.5889374,22.7166313 C30.6145774,17.5732612 28.2613774,12.3607012 23.7325773,9.74591113 L23.7325773,9.74554113 C23.5631173,9.64786112 23.3925473,9.55499112 23.2204973,9.46656112 C23.1468673,9.42882112 23.1202273,9.36851112 23.1102373,9.33558112 C23.0995073,9.29858112 23.0939573,9.24160112 23.1291073,9.18055112 L25.7009773,4.72575106 C25.7568473,4.63066106 25.8745073,4.59440106 25.9710773,4.64472106 C26.1508973,4.73907106 26.3299773,4.83675106 26.5075773,4.93924106 C33.7266474,9.10692112 37.0906875,17.8866512 34.5077174,25.8153813 L34.3671174,26.2475413 L36.9941175,27.7297614 C37.0947575,27.7867414 37.1017875,27.8781314 37.0969775,27.9273414"/>
      <path stroke="#000" stroke-width=".5" d="M37.0969775,27.9273414 C37.0921675,27.9765514 37.0677475,28.0649814 36.9578575,28.1012414 L28.9318174,30.7585814 C28.8567074,30.7833714 28.7967674,30.7593214 28.7671674,30.7423014 C28.7379374,30.7256514 28.6861374,30.6868014 28.6687474,30.6098414 L26.7921073,22.3662413 C26.7665773,22.2537613 26.8294773,22.1871613 26.8690673,22.1575613 C26.8945973,22.1383213 26.9367773,22.1150113 26.9900573,22.1150113 C27.0207673,22.1150113 27.0548073,22.1227813 27.0914373,22.1435013 L29.4390874,23.4677313 L29.5889374,22.7166313 C30.6145774,17.5732612 28.2613774,12.3607012 23.7325773,9.74591113 L23.7325773,9.74554113 C23.5631173,9.64786112 23.3925473,9.55499112 23.2204973,9.46656112 C23.1468673,9.42882112 23.1202273,9.36851112 23.1102373,9.33558112 C23.0995073,9.29858112 23.0939573,9.24160112 23.1291073,9.18055112 L25.7009773,4.72575106 C25.7568473,4.63066106 25.8745073,4.59440106 25.9710773,4.64472106 C26.1508973,4.73907106 26.3299773,4.83675106 26.5075773,4.93924106 C33.7266474,9.10692112 37.0906875,17.8866512 34.5077174,25.8153813 L34.3671174,26.2475413 L36.9941175,27.7297614 C37.0947575,27.7867414 37.1017875,27.8781314 37.0969775,27.9273414 Z"/>
    </g>
  </g>
</svg>
