<svg xmlns="http://www.w3.org/2000/svg" width="26" height="25" viewBox="0 0 26 25">
    <g fill="#707070" fill-rule="evenodd">
        <path d="M.399 24.144h5.318V7.95H.399v16.194zM3.058 5.74c1.854 0 3.009-1.244 3.009-2.798C6.032 1.353 4.912.144 3.093.144 1.273.144.084 1.354.084 2.942c0 1.554 1.154 2.798 2.94 2.798h.034zM8.66 24.144h5.319v-9.043c0-.484.035-.968.175-1.313.384-.968 1.26-1.97 2.729-1.97 1.925 0 2.695 1.486 2.695 3.662v8.664h5.318v-9.285c0-4.974-2.624-7.289-6.124-7.289-2.869 0-4.129 1.624-4.828 2.729h.035V7.95H8.66c.07 1.52 0 16.194 0 16.194" transform="translate(.8)"/>
    </g>
</svg>
