<?xml version="1.0" encoding="UTF-8" standalone="no"?>
<svg width="26px" height="25px" viewBox="0 0 26 25" version="1.1" xmlns="http://www.w3.org/2000/svg" xmlns:xlink="http://www.w3.org/1999/xlink">
    <!-- Generator: Sketch 41.2 (35397) - http://www.bohemiancoding.com/sketch -->
    <title>LinkedIn</title>
    <desc>Created with Sketch.</desc>
    <defs></defs>
    <g id="Symbols" stroke="none" stroke-width="1" fill="none" fill-rule="evenodd">
        <g id="footer" transform="translate(-1093.000000, -118.000000)" fill="#427314">
            <g id="RRSS">
                <g transform="translate(1003.000000, 118.000000)">
                    <g id="LinkedIn" transform="translate(90.800000, 0.000000)">
                        <g id="Imported-Layers-Copy-2">
                            <path d="M0.39869403,24.1440104 L5.71697761,24.1440104 L5.71697761,7.95026693 L0.39869403,7.95026693 L0.39869403,24.1440104 Z M3.05802239,5.73996094 C4.91231343,5.73996094 6.06697761,4.49556641 6.06697761,2.94172526 C6.03227612,1.35314453 4.91231343,0.143678385 3.09328358,0.143678385 C1.27350746,0.143678385 0.084141791,1.35314453 0.084141791,2.94172526 C0.084141791,4.49556641 1.23843284,5.73996094 3.0233209,5.73996094 L3.05802239,5.73996094 L3.05802239,5.73996094 Z" id="Fill-1"></path>
                            <path d="M8.66026119,24.1440104 L13.9789179,24.1440104 L13.9789179,15.1007682 C13.9789179,14.6168685 14.0136194,14.1327799 14.1541045,13.7876497 C14.5384328,12.8202279 15.413806,11.818444 16.8828358,11.818444 C18.8080224,11.818444 19.5776119,13.3041276 19.5776119,15.4804492 L19.5776119,24.1440104 L24.8958955,24.1440104 L24.8958955,14.858724 C24.8958955,9.88473307 22.2720149,7.57039714 18.7723881,7.57039714 C15.9029851,7.57039714 14.6434701,9.19371745 13.9436567,10.298776 L13.9789179,10.298776 L13.9789179,7.95026693 L8.66026119,7.95026693 C8.73003731,9.46936849 8.66026119,24.1440104 8.66026119,24.1440104" id="Fill-2"></path>
                        </g>
                    </g>
                </g>
            </g>
        </g>
    </g>
</svg>