<?xml version="1.0" encoding="UTF-8"?>
<svg width="21px" height="21px" viewBox="0 0 21 21" version="1.1" xmlns="http://www.w3.org/2000/svg" xmlns:xlink="http://www.w3.org/1999/xlink">
    <!-- Generator: Sketch 50 (54983) - http://www.bohemiancoding.com/sketch -->
    <title>Shape</title>
    <desc>Created with Sketch.</desc>
    <defs></defs>
    <g id="Propuesta-21-junio" stroke="none" stroke-width="1" fill="none" fill-rule="evenodd">
        <g id="00_D_Home" transform="translate(-1320.000000, -39.000000)" fill="#6C8D31">
            <path d="M1340.48606,57.0042667 L1335.92391,52.4422081 C1335.89967,52.4179624 1335.87123,52.4010155 1335.84589,52.3784477 C1336.74357,51.0167431 1337.2675,49.3867414 1337.2675,47.633833 C1337.2675,42.8654759 1333.40202,39 1328.63375,39 C1323.86548,39 1320,42.8654759 1320,47.6337491 C1320,52.4019384 1323.86539,56.2674982 1328.63367,56.2674982 C1330.38666,56.2674982 1332.01658,55.743572 1333.37828,54.8458923 C1333.40085,54.8711448 1333.41771,54.8995853 1333.44196,54.9238311 L1338.00418,59.4860574 C1338.68952,60.1713142 1339.80063,60.1713142 1340.48606,59.4860574 C1341.17131,58.8007167 1341.17131,57.6896074 1340.48606,57.0042667 L1340.48606,57.0042667 Z M1328.50004,53 C1325.4624,53 1323,50.5375954 1323,47.5000409 C1323,44.4624045 1325.46249,42 1328.50004,42 C1331.53751,42 1334,44.4624863 1334,47.5000409 C1334,50.5375954 1331.53751,53 1328.50004,53 L1328.50004,53 Z" id="Shape"></path>
        </g>
    </g>
</svg>