<?xml version="1.0" encoding="UTF-8"?>
<svg width="21px" height="21px" viewBox="0 0 21 21" version="1.1" xmlns="http://www.w3.org/2000/svg" xmlns:xlink="http://www.w3.org/1999/xlink">
    <!-- Generator: Sketch 50 (54983) - http://www.bohemiancoding.com/sketch -->
    <title>lupa_white</title>
    <desc>Created with Sketch.</desc>
    <defs></defs>
    <g id="Propuesta-21-junio" stroke="none" stroke-width="1" fill="none" fill-rule="evenodd">
        <g id="01_D_Padres" transform="translate(-1320.000000, -41.000000)" fill="#FFFFFF">
            <g id="header" transform="translate(1320.000000, 38.000000)">
                <g id="herramientas">
                    <path d="M20.4860574,21.0042667 L15.9239149,16.4422081 C15.8996692,16.4179624 15.8712287,16.4010155 15.8458923,16.3784477 C16.743572,15.0167431 17.2674982,13.3867414 17.2674982,11.633833 C17.2674982,6.86547589 13.4020223,3 8.63374912,3 C3.86547589,3 0,6.86547589 0,11.6337491 C0,16.4019384 3.86539199,20.2674982 8.63366519,20.2674982 C10.3866574,20.2674982 12.0165753,19.743572 13.3782799,18.8458923 C13.4008477,18.8711448 13.4177107,18.8995853 13.4419565,18.9238311 L18.0041828,23.4860574 C18.6895235,24.1713142 19.8006328,24.1713142 20.4860574,23.4860574 C21.1713142,22.8007167 21.1713142,21.6896074 20.4860574,21.0042667 L20.4860574,21.0042667 Z M8.50004093,17 C5.46240454,17 3,14.5375954 3,11.5000409 C3,8.46240454 5.46248633,6 8.50004093,6 C11.5375137,6 14,8.46248633 14,11.5000409 C14,14.5375954 11.5375137,17 8.50004093,17 L8.50004093,17 Z" id="lupa_white"></path>
                </g>
            </g>
        </g>
    </g>
</svg>