<?xml version="1.0" encoding="utf-8" ?>
<svg xmlns="http://www.w3.org/2000/svg" xmlns:xlink="http://www.w3.org/1999/xlink" width="17" height="17">
	<defs>
		<clipPath id="clip_0">
			<rect x="-230.67969" y="-74.199997" width="300.79999" height="533.91998" clip-rule="evenodd"/>
		</clipPath>
	</defs>
	<g clip-path="url(#clip_0)">
		<path fill="rgb(65,115,20)" stroke="none" transform="matrix(0.94 0 0 0.94 0.560547 0.457695)" d="M12.7874 10.8572L16.4509 14.5419C17.0012 15.0955 17.0012 15.9929 16.4509 16.5464C15.9005 17.0999 15.0083 17.0999 14.4579 16.5464L10.7943 12.8616C10.7748 12.842 10.7613 12.819 10.7432 12.7986C9.64967 13.5237 8.3408 13.9468 6.93309 13.9468C3.10403 13.9468 0 10.8246 0 6.97341C0 3.12211 3.10409 0 6.93316 0C10.7622 0 13.8663 3.12211 13.8663 6.97348C13.8663 8.38929 13.4456 9.70583 12.7247 10.8057C12.7451 10.8239 12.7679 10.8376 12.7874 10.8572ZM2.40909 6.86542C2.40909 9.31883 4.38648 11.3077 6.82579 11.3077C9.26497 11.3077 11.2424 9.31883 11.2424 6.86542C11.2424 4.41201 9.26497 2.42308 6.82579 2.42308C4.38654 2.42308 2.40909 4.41194 2.40909 6.86542Z" fill-rule="evenodd"/>
	</g>
</svg>
