<?xml version="1.0" encoding="UTF-8" standalone="no"?>
<svg width="32px" height="6px" viewBox="0 0 32 6" version="1.1" xmlns="http://www.w3.org/2000/svg" xmlns:xlink="http://www.w3.org/1999/xlink">
    <!-- Generator: Sketch 41.2 (35397) - http://www.bohemiancoding.com/sketch -->
    <title>más</title>
    <desc>Created with Sketch.</desc>
    <defs></defs>
    <g id="Symbols" stroke="none" stroke-width="1" fill="none" fill-rule="evenodd">
        <g id="footer" transform="translate(-1246.000000, -128.000000)" fill="#427314">
            <g id="RRSS">
                <g transform="translate(1003.000000, 118.000000)">
                    <g id="más" transform="translate(243.000000, 10.000000)">
                        <path d="M2.9090719,0.0195 C1.3023268,0.0195 0,1.35375 0,3 C0,4.64625 1.3023268,5.9805 2.9090719,5.9805 C4.51581699,5.9805 5.81819608,4.64625 5.81819608,3 C5.81819608,1.35375 4.51586928,0.0195 2.9090719,0.0195 L2.9090719,0.0195 Z M16.4848627,0.0195 C14.8780654,0.0195 13.5757908,1.35380357 13.5757908,3 C13.5757908,4.64619643 14.8781176,5.9805 16.4848627,5.9805 C18.0916078,5.9805 19.3939346,4.64630357 19.3939346,3 C19.3939346,1.35375 18.0916601,0.0195 16.4848627,0.0195 L16.4848627,0.0195 Z M29.0909281,0.0195 C27.4841307,0.0195 26.1818562,1.35380357 26.1818562,3 C26.1818562,4.64619643 27.4841307,5.9805 29.0909281,5.9805 C30.6976732,5.9805 32,4.64625 32,3 C32,1.35375 30.6976732,0.0195 29.0909281,0.0195 L29.0909281,0.0195 Z" id="Shape"></path>
                    </g>
                </g>
            </g>
        </g>
    </g>
</svg>