<svg xmlns="http://www.w3.org/2000/svg" width="40" height="40" viewBox="0 0 40 40">
  <g fill="none" fill-rule="evenodd">
    <path fill="#F1DD45" d="M21.5231667,28.7066667 C21.5231667,28.7066667 21.5231667,25.358 21.5231667,23.585 C29.7961667,20.335 32.9971667,10.2885 32.9971667,0.833333333 L7.02283333,0.833333333 C7.02283333,10.2885 10.2238333,20.335 18.4968333,23.585 C18.4968333,25.358 18.4968333,28.7066667 18.4968333,28.7066667 L21.5231667,28.7066667"/>
    <path fill="#EFCF46" d="M19.8456667,28.7066667 L21.5231667,28.7066667 C21.5231667,28.7066667 21.5231667,25.358 21.5231667,23.585 C29.7961667,20.335 32.9971667,10.2885 32.9971667,0.833333333 L19.8456667,0.833333333 L19.8456667,28.7066667"/>
    <path fill="#DBA93C" d="M31.9038333,0.833333333 C31.9038333,10.2885 28.1186667,17.881 19.8456667,21.131 C19.8456667,22.9041667 19.8456667,28.7066667 19.8456667,28.7066667 L21.5231667,28.7066667 C21.5231667,28.7066667 21.5231667,25.358 21.5231667,23.585 C29.7961667,20.335 32.9971667,10.2885 32.9971667,0.833333333 L31.9038333,0.833333333"/>
    <path fill="#F4F090" d="M18.0518333 19.7485C15.5371667 18.2576667 13.5856667 15.7623333 12.252 12.3318333 12.0721667 11.8691667 11.5511667 11.64 11.0886667 11.8198333 10.626 11.9996667 10.3968333 12.5205 10.5766667 12.9831667 12.0596667 16.7973333 14.2663333 19.5938333 17.1351667 21.2946667 17.5621667 21.5476667 18.1135 21.4066667 18.3665 20.98 18.6196667 20.553 18.4788333 20.0016667 18.0518333 19.7485M11.4473333 9.8785C11.1873333 8.9265 10.9671667 7.91916667 10.7933333 6.8845 10.711 6.395 10.2475 6.06483333 9.758 6.14716667 9.2685 6.22933333 8.93833333 6.69283333 9.02083333 7.1825 9.2045 8.276 9.43766667 9.3425 9.71333333 10.3521667 9.84416667 10.831 10.3383333 11.113 10.8171667 10.9823333 11.296 10.8515 11.578 10.3575 11.4473333 9.8785"/>
    <polygon fill="#95795C" points="12.473 36.371 27.547 36.371 27.547 28.707 12.473 28.707"/>
    <polyline fill="#6C563F" points="27.547 28.707 27.547 36.371 19.883 36.371 27.547 28.707"/>
    <polygon fill="#FFFFFE" points="17.069 33.803 23.006 33.803 23.006 31.298 17.069 31.298"/>
    <polygon fill="#95795C" points="10.629 38.801 29.392 38.801 29.392 36.371 10.629 36.371"/>
    <polyline fill="#6C563F" points="21.754 36.374 19.327 38.801 29.392 38.801 29.392 36.371 21.754 36.374"/>
    <path fill="#090C0E" d="M29.3915,38.4681667 L10.6285,38.4681667 C10.8126667,38.4681667 10.9618333,38.6173333 10.9618333,38.8015 L10.9618333,36.3711667 C10.9618333,36.5551667 10.8126667,36.7045 10.6285,36.7045 L29.3915,36.7045 C29.2073333,36.7045 29.0581667,36.5551667 29.0581667,36.3711667 L29.0581667,38.8015 C29.0581667,38.6173333 29.2073333,38.4681667 29.3915,38.4681667 Z M29.3915,36.0378333 L10.6285,36.0378333 C10.4445,36.0378333 10.2951667,36.187 10.2951667,36.3711667 L10.2951667,38.8015 C10.2951667,38.9855 10.4445,39.1348333 10.6285,39.1348333 L29.3915,39.1348333 C29.5755,39.1348333 29.7248333,38.9855 29.7248333,38.8015 L29.7248333,36.3711667 C29.7248333,36.187 29.5755,36.0378333 29.3915,36.0378333 L29.3915,36.0378333 Z"/>
    <path fill="#090C0E" d="M12.473,36.7045 L27.547,36.7045 C27.7311667,36.7045 27.8803333,36.5551667 27.8803333,36.3711667 L27.8803333,28.7066667 C27.8803333,28.5226667 27.7311667,28.3733333 27.547,28.3733333 L12.473,28.3733333 C12.289,28.3733333 12.1396667,28.5226667 12.1396667,28.7066667 L12.1396667,36.3711667 C12.1396667,36.5551667 12.289,36.7045 12.473,36.7045 Z M12.473,29.04 L27.547,29.04 C27.363,29.04 27.2136667,28.8908333 27.2136667,28.7066667 L27.2136667,36.3711667 C27.2136667,36.187 27.363,36.0378333 27.547,36.0378333 L12.473,36.0378333 C12.6571667,36.0378333 12.8063333,36.187 12.8063333,36.3711667 L12.8063333,28.7066667 C12.8063333,28.8908333 12.6571667,29.04 12.473,29.04 L12.473,29.04 Z"/>
    <path fill="#090C0E" d="M17.069 34.1125L22.9511667 34.1125C23.1353333 34.1125 23.2845 33.9631667 23.2845 33.7791667L23.2845 31.2981667C23.2845 31.1141667 23.1353333 30.9648333 22.9511667 30.9648333L17.069 30.9648333C16.8848333 30.9648333 16.7356667 31.1141667 16.7356667 31.2981667L16.7356667 33.7791667C16.7356667 33.9631667 16.8848333 34.1125 17.069 34.1125zM17.069 31.6315L22.9511667 31.6315C22.7671667 31.6315 22.6178333 31.4823333 22.6178333 31.2981667L22.6178333 33.7791667C22.6178333 33.595 22.7671667 33.4458333 22.9511667 33.4458333L17.069 33.4458333C17.253 33.4458333 17.4023333 33.595 17.4023333 33.7791667L17.4023333 31.2981667C17.4023333 31.4823333 17.253 31.6315 17.069 31.6315L17.069 31.6315zM18.8301667 28.7066667L18.8301667 23.585C18.8301667 23.448 18.7463333 23.3248333 18.6188333 23.2746667 14.8461667 21.7926667 11.9335 18.8068333 9.96183333 14.4 8.25716667 10.5903333 7.35616667 5.89916667 7.35616667.833333333 7.35616667 1.01733333 7.207 1.16666667 7.02283333 1.16666667L32.9971667 1.16666667C32.8131667 1.16666667 32.6638333 1.01733333 32.6638333.833333333 32.6638333 5.89916667 31.7628333 10.5903333 30.0583333 14.4 28.0866667 18.8068333 25.174 21.7926667 21.4013333 23.2746667 21.2738333 23.3248333 21.1898333 23.448 21.1898333 23.585L21.1898333 28.7066667C21.1898333 28.8908333 21.3391667 29.04 21.5231667 29.04 21.7073333 29.04 21.8565 28.8908333 21.8565 28.7066667L21.8565 23.585C21.8565 23.722 21.7726667 23.845 21.6451667 23.8951667 25.586 22.347 28.6213333 19.244 30.6668333 14.6723333 32.4095 10.7776667 33.3305 5.99216667 33.3305.833333333 33.3305.649333333 33.1813333.5 32.9971667.5L7.02283333.5C6.83883333.5 6.6895.649333333 6.6895.833333333 6.6895 5.99216667 7.61066667 10.7776667 9.35316667 14.6723333 11.3988333 19.244 14.4341667 22.3471667 18.375 23.8951667 18.2475 23.845 18.1635 23.722 18.1635 23.585L18.1635 28.7066667C18.1635 28.8908333 18.3128333 29.04 18.4968333 29.04 18.681 29.04 18.8301667 28.8908333 18.8301667 28.7066667"/>
    <path fill="#090C0E" d="M7.1755 4.0455L1.16233333 4.0455C.978333333 4.0455.829 4.19483333.829 4.37883333.829 10.7403333 6.40833333 16.8938333 11.3968333 18.1456667 11.5753333 18.1906667 11.7565 18.0821667 11.8013333 17.9036667 11.846 17.725 11.7376667 17.544 11.559 17.4991667 6.80866667 16.307 1.49566667 10.4426667 1.49566667 4.37883333 1.49566667 4.563 1.3465 4.71216667 1.16233333 4.71216667L7.1755 4.71216667C7.35966667 4.71216667 7.50883333 4.563 7.50883333 4.37883333 7.50883333 4.19483333 7.35966667 4.0455 7.1755 4.0455M32.8445 4.71216667L38.8576667 4.71216667C38.6735 4.71216667 38.5243333 4.563 38.5243333 4.37883333 38.5243333 10.4426667 33.2115 16.307 28.4611667 17.4991667 28.2825 17.544 28.1741667 17.725 28.219 17.9036667 28.2638333 18.0821667 28.4448333 18.1906667 28.6235 18.1456667 33.6118333 16.8938333 39.191 10.7403333 39.191 4.37883333 39.191 4.19483333 39.0416667 4.0455 38.8576667 4.0455L32.8445 4.0455C32.6605 4.0455 32.5111667 4.19483333 32.5111667 4.37883333 32.5111667 4.563 32.6605 4.71216667 32.8445 4.71216667"/>
  </g>
</svg>
