<?xml version="1.0" encoding="UTF-8" standalone="no"?>
<svg width="58px" height="58px" viewBox="0 0 58 58" version="1.1" xmlns="http://www.w3.org/2000/svg" xmlns:xlink="http://www.w3.org/1999/xlink">
    <!-- Generator: Sketch 41.2 (35397) - http://www.bohemiancoding.com/sketch -->
    <title>Shape</title>
    <desc>Created with Sketch.</desc>
    <defs></defs>
    <g id="Symbols" stroke="none" stroke-width="1" fill="none" fill-rule="evenodd">
        <g id="scroll-up" fill="#9B9B9B">
            <g id="Shape">
                <g id="Welcome">
                    <g>
                        <g id="HD_DESK_Home">
                            <g id="Footer">
                                <g id="flecha-subir" transform="translate(29.000000, 29.000000) rotate(-90.000000) translate(-29.000000, -29.000000) ">
                                    <path d="M26.3066013,17.028402 L26.3011993,17.0356993 C25.8154967,16.5898007 25.1774967,16.3125 24.4687974,16.3125 C22.9680948,16.3125 21.75,17.5305 21.75,19.0312974 C21.75,19.8251961 22.0943987,20.532 22.6363007,21.0286961 L22.6308987,21.0359935 L31.32,29 L22.6308039,36.9659967 L22.6362059,36.9731993 C22.0943039,37.468 21.7499052,38.1748987 21.7499052,38.9687974 C21.7499052,40.4695948 22.9679052,41.6875948 24.4687026,41.6875948 C25.177402,41.6875948 25.815402,41.4102941 26.3011046,40.9662908 L26.3065065,40.9734935 L37.1815065,31.0046961 C37.7416046,30.488098 38.0624052,29.763098 38.0624052,29.0000948 C38.0624052,28.2370915 37.7416046,27.5119967 37.1815065,26.9954935 L26.3066013,17.028402 L26.3066013,17.028402 Z M29,0 C12.9847974,0 0,12.9847974 0,29 C0,45.0152026 12.9847974,58 29,58 C45.0152026,58 58,45.0152026 58,29 C58,12.9847974 45.0152026,0 29,0 L29,0 Z M29,52.5625 C16.008,52.5625 5.4375,41.992 5.4375,29 C5.4375,16.008 16.008,5.4375 29,5.4375 C41.992,5.4375 52.5625,16.008 52.5625,29 C52.5625,41.992 41.992,52.5625 29,52.5625 L29,52.5625 Z" id="Shape"></path>
                                </g>
                            </g>
                        </g>
                    </g>
                </g>
            </g>
        </g>
    </g>
</svg>