<svg xmlns="http://www.w3.org/2000/svg" width="30" height="20" viewBox="0 0 30 20">
    <path fill="#707070" fill-rule="evenodd" d="M29.598 9.338c-1.031.173-2.526-.007-3.319-.33 1.647-.134 2.761-.868 3.19-1.865-.593.359-2.436.75-3.452.377-.05-.234-.106-.458-.162-.66-.774-2.795-3.428-5.047-6.208-4.775.224-.09.452-.172.681-.248.305-.107 2.101-.395 1.819-1.016-.24-.548-2.434.412-2.847.538.545-.2 1.448-.546 1.543-1.163-.835.113-1.655.5-2.289 1.065.23-.241.403-.536.44-.854-2.23 1.4-3.532 4.218-4.585 6.954-.827-.788-1.562-1.409-2.219-1.754-1.845-.97-4.052-1.985-7.515-3.248-.107 1.125.566 2.623 2.504 3.617-.42-.055-1.187.07-1.8.212.25 1.29 1.066 2.353 3.28 2.866-1.012.065-1.535.293-2.008.779.46.897 1.586 1.952 3.606 1.735-2.249.952-.917 2.715.913 2.452-3.12 3.166-8.04 2.932-10.865.285 7.375 9.872 23.409 5.837 25.797-3.67 1.792.014 2.843-.61 3.496-1.297"/>
</svg>
