<?xml version="1.0" encoding="UTF-8" standalone="no"?>
<svg width="30px" height="20px" viewBox="0 0 30 20" version="1.1" xmlns="http://www.w3.org/2000/svg" xmlns:xlink="http://www.w3.org/1999/xlink">
    <!-- Generator: Sketch 41.2 (35397) - http://www.bohemiancoding.com/sketch -->
    <title>Twitter</title>
    <desc>Created with Sketch.</desc>
    <defs></defs>
    <g id="Symbols" stroke="none" stroke-width="1" fill="none" fill-rule="evenodd">
        <g id="footer" transform="translate(-1003.000000, -120.000000)" fill="#427314">
            <g id="RRSS">
                <g transform="translate(1003.000000, 118.000000)">
                    <g id="Twitter" transform="translate(0.000000, 2.000000)">
                        <path d="M29.5975838,9.33816659 C28.5665968,9.51079263 27.0715153,9.33132593 26.2792055,9.00793713 C27.9256132,8.87420896 29.0401236,8.14011236 29.4694964,7.14338811 C28.8763577,7.50191912 27.0332394,7.89210494 26.0171527,7.52029501 C25.9663005,7.28556652 25.9112106,7.06237325 25.8554373,6.86050675 C25.0813085,4.06522572 22.4266058,1.81303937 19.6470966,2.08519029 C19.871147,1.99585933 20.0986148,1.91310077 20.3281331,1.837317 C20.6325627,1.72974428 22.4292031,1.44230248 22.1466454,0.820875558 C21.9072848,0.272549799 19.712849,1.23292466 19.2998801,1.35927566 C19.8451741,1.15861633 20.7475269,0.812559463 20.8434899,0.196363636 C20.0082565,0.308765052 19.18806,0.696938914 18.5543215,1.26122621 C18.7834297,1.01965706 18.9569013,0.724972203 18.9936734,0.407351019 C16.7643794,1.80646697 15.4623174,4.62468432 14.4093218,7.36081376 C13.5821537,6.57252842 12.8469842,5.95244281 12.1900068,5.60692246 C10.3448381,4.63635368 8.13796274,3.62219246 4.67481975,2.35881664 C4.5684676,3.48430624 5.24130213,4.98187402 7.17901634,5.97604979 C6.75948584,5.92051973 5.99178192,6.04512703 5.37868504,6.18824434 C5.62829817,7.47884866 6.44521388,8.54102863 8.65837742,9.05421218 C7.64721184,9.11939963 7.12378978,9.34688508 6.6506731,9.83270599 C7.11107673,10.7297712 8.23652302,11.7849764 10.2565303,11.5679531 C8.0080983,12.5202802 9.3396873,14.28289 11.1695457,14.0197258 C8.04979162,17.1862802 3.12997965,16.9515517 0.304812834,14.3051556 C7.6800197,24.176763 23.7140409,20.1422497 26.1023164,10.6344044 C27.8940357,10.6486222 28.9451175,10.025854 29.5975838,9.33816659" id="Imported-Layers"></path>
                    </g>
                </g>
            </g>
        </g>
    </g>
</svg>