<?xml version="1.0" encoding="UTF-8"?>
<svg width="15px" height="15px" viewBox="0 0 15 15" version="1.1" xmlns="http://www.w3.org/2000/svg" xmlns:xlink="http://www.w3.org/1999/xlink">
    <!-- Generator: Sketch 53.2 (72643) - https://sketchapp.com -->
    <title>ventana_nueva_verde</title>
    <desc>Created with Sketch.</desc>
    <g id="Page-1" stroke="none" stroke-width="1" fill="none" fill-rule="evenodd">
        <g id="ventana-nueva" transform="translate(-62.000000, -24.000000)" fill="#AFFF6E" fill-rule="nonzero">
            <g id="ventana_nueva_verde" transform="translate(62.000000, 24.000000)">
                <path d="M12.3353105,1.5 L6.85575188,6.97955865 C6.53408929,7.30122124 6.53362346,7.82404819 6.85580601,8.14623073 C7.17733298,8.4677577 7.70032543,8.46843752 8.02247809,8.14628486 L13.5,2.66876295 L13.5,4.50059271 C13.5,4.91360244 13.8357864,5.25 14.25,5.25 C14.6633707,5.25 15,4.91447893 15,4.50059271 L15,0.749407294 C15,0.543000919 14.9161334,0.355729326 14.7805243,0.220019241 C14.6447086,0.0840769106 14.4574369,0 14.2505927,0 L10.4994073,0 C10.0863976,0 9.75,0.335786437 9.75,0.75 C9.75,1.16337071 10.0855211,1.5 10.4994073,1.5 L12.3353105,1.5 L12.3353105,1.5 Z M15,9 L15,5.43471576 L15,13.1305685 C15,14.163027 14.2561477,15 13.3374256,15 L1.66257441,15 C0.744359925,15 0,14.1613933 0,13.1305685 L0,1.86943151 C0,0.836973 0.743852325,0 1.66257441,0 L9.66871279,0 L6,0 C6.41421356,0 6.75,0.335786437 6.75,0.75 C6.75,1.16421356 6.41421356,1.5 6,1.5 L1.92708636,1.5 C1.68849135,1.5 1.5,1.72401313 1.5,2.00034731 L1.5,12.9996527 C1.5,13.2709994 1.69121308,13.5 1.92708636,13.5 L13.0729136,13.5 C13.3115087,13.5 13.5,13.2759869 13.5,12.9996527 L13.5,9 C13.5,8.58578644 13.8357864,8.25 14.25,8.25 C14.6642136,8.25 15,8.58578644 15,9 L15,9 Z" id="Shape"></path>
            </g>
        </g>
    </g>
</svg>