<svg xmlns="http://www.w3.org/2000/svg" width="40" height="40" viewBox="0 0 40 40">
  <g fill="none" fill-rule="evenodd" transform="translate(0 2)">
    <path fill="#79C5C2" d="M16.6415679,21.2545089 C17.9605221,21.2545089 19.0298031,22.3235284 19.0298031,23.6427441 C19.0298031,24.9619597 17.9605221,26.0309793 16.6415679,26.0309793 C16.3016986,26.0309793 15.9790843,25.9593453 15.6862738,25.832025 C14.8431366,25.4633976 14.2533327,24.621829 14.2533327,23.6427441 C14.2533327,22.3235284 15.3223523,21.2545089 16.6415679,21.2545089"/>
    <path fill="#91CA9D" d="M22.2141167,21.2545089 C23.5330709,21.2545089 24.6023519,22.3235284 24.6023519,23.6427441 C24.6023519,24.621829 24.0122865,25.4633976 23.168365,25.832025 C22.8763389,25.9593453 22.5539859,26.0309793 22.2141167,26.0309793 C20.894901,26.0309793 19.8258815,24.9619597 19.8258815,23.6427441 C19.8258815,22.3235284 20.894901,21.2545089 22.2141167,21.2545089"/>
    <polygon fill="#E47171" points="25.398 14.09 29.379 14.09 29.379 10.906 25.398 10.906"/>
    <polygon fill="#2D4250" points="17.438 14.09 22.214 14.09 22.214 9.313 17.438 9.313"/>
    <polygon fill="#E47171" points="10.273 14.09 14.253 14.09 14.253 10.906 10.273 10.906"/>
    <path fill="#8E9D99" d="M28.5824824,20.4584305 L30.1746392,20.4584305 L30.1746392,18.8662737 L28.5824824,18.8662737 L28.5824824,20.4584305 Z M28.5824824,23.6427441 L30.1746392,23.6427441 L30.1746392,22.0505873 L28.5824824,22.0505873 L28.5824824,23.6427441 Z M31.766796,20.4584305 L33.3589528,20.4584305 L33.3589528,18.8662737 L31.766796,18.8662737 L31.766796,20.4584305 Z M31.766796,23.6427441 L33.3589528,23.6427441 L33.3589528,22.0505873 L31.766796,22.0505873 L31.766796,23.6427441 Z M30.1746392,14.0898033 C34.5715018,14.0898033 38.1354232,17.6537247 38.1354232,22.0505873 C38.1354232,26.4474498 34.5715018,30.0113712 30.1746392,30.0113712 C27.1471884,30.0113712 24.5147702,28.3203909 23.168365,25.832025 C24.0122865,25.4633976 24.6023519,24.621829 24.6023519,23.6427441 C24.6023519,22.3235284 23.5330709,21.2545089 22.2141167,21.2545089 C20.894901,21.2545089 19.8258815,22.3235284 19.8258815,23.6427441 L19.0298031,23.6427441 C19.0298031,22.3235284 17.9605221,21.2545089 16.6415679,21.2545089 C15.3223523,21.2545089 14.2533327,22.3235284 14.2533327,23.6427441 C14.2533327,24.621829 14.8431366,25.4633976 15.6862738,25.832025 C14.3409144,28.3203909 11.7082348,30.0113712 8.68081005,30.0113712 C4.2841305,30.0113712 0.720130647,26.4474498 0.720130647,22.0505873 C0.720130647,17.6537247 4.2841305,14.0898033 8.68081005,14.0898033 L30.1746392,14.0898033 L30.1746392,14.0898033 Z"/>
    <path fill="#778582" d="M15.3069274,25.6213061 C15.3814372,25.7684956 15.4703261,25.9067963 15.5722869,26.0346394 C15.6109797,25.9674498 15.6494111,25.9002603 15.6862738,25.832025 C15.552679,25.7734629 15.4264045,25.7020904 15.3069274,25.6213061"/>
    <polygon fill="#0A0B09" points="31.767 23.643 33.359 23.643 33.359 22.051 31.767 22.051"/>
    <polygon fill="#0A0B09" points="31.767 20.458 33.359 20.458 33.359 18.866 31.767 18.866"/>
    <polygon fill="#0A0B09" points="28.582 23.643 30.175 23.643 30.175 22.051 28.582 22.051"/>
    <polygon fill="#0A0B09" points="28.582 20.458 30.175 20.458 30.175 18.866 28.582 18.866"/>
    <path fill="#0A0B09" d="M22.2141167 14.4879732C21.9942474 14.4879732 21.8159468 14.309934 21.8159468 14.0898033L21.8159468 9.71152896 17.8355548 9.71152896 17.8355548 14.0898033C17.8355548 14.309934 17.6575156 14.4879732 17.4376463 14.4879732 17.217777 14.4879732 17.0394764 14.309934 17.0394764 14.0898033L17.0394764 9.31348976C17.0394764 9.09367278 17.217777 8.91545056 17.4376463 8.91545056L22.2141167 8.91545056C22.4337245 8.91545056 22.6120252 9.09367278 22.6120252 9.31348976L22.6120252 14.0898033C22.6120252 14.309934 22.4337245 14.4879732 22.2141167 14.4879732M14.2533327 14.4879732C14.0334634 14.4879732 13.8554242 14.309934 13.8554242 14.0898033L13.8554242 11.3036596 10.6709799 11.3036596 10.6709799 14.0898033C10.6709799 14.309934 10.4927838 14.4879732 10.2729407 14.4879732 10.0530976 14.4879732 9.8749015 14.309934 9.8749015 14.0898033L9.8749015 10.9057511C9.8749015 10.6858819 10.0530976 10.5075812 10.2729407 10.5075812L14.2533327 10.5075812C14.473202 10.5075812 14.6512412 10.6858819 14.6512412 10.9057511L14.6512412 14.0898033C14.6512412 14.309934 14.473202 14.4879732 14.2533327 14.4879732M29.3785608 14.4879732C29.158953 14.4879732 28.9806523 14.309934 28.9806523 14.0898033L28.9806523 11.3036596 25.7963387 11.3036596 25.7963387 14.0898033C25.7963387 14.309934 25.6182995 14.4879732 25.3981688 14.4879732 25.1782996 14.4879732 25.0002603 14.309934 25.0002603 14.0898033L25.0002603 10.9057511C25.0002603 10.6858819 25.1782996 10.5075812 25.3981688 10.5075812L29.3785608 10.5075812C29.5984301 10.5075812 29.7767307 10.6858819 29.7767307 10.9057511L29.7767307 14.0898033C29.7767307 14.309934 29.5984301 14.4879732 29.3785608 14.4879732M19.8258815 24.040914L19.0298031 24.040914C18.8099338 24.040914 18.6316332 23.8626133 18.6316332 23.6427441 18.6316332 23.4228748 18.8099338 23.2448356 19.0298031 23.2448356L19.8258815 23.2448356C20.0457507 23.2448356 20.22379 23.4228748 20.22379 23.6427441 20.22379 23.8626133 20.0457507 24.040914 19.8258815 24.040914"/>
    <path fill="#0A0B09" d="M30.1746392,30.4092797 C27.1014367,30.4092797 24.2826133,28.7279726 22.8185611,26.0213061 C22.7137245,25.8281034 22.7858814,25.5865348 22.979084,25.4819597 C23.172548,25.3771231 23.4141166,25.4492799 23.5186918,25.642744 C24.8433976,28.0918942 27.3939857,29.6132013 30.1746392,29.6132013 C34.3448351,29.6132013 37.7375147,26.2205217 37.7375147,22.0505873 C37.7375147,17.8806528 34.3448351,14.4879732 30.1746392,14.4879732 L8.68081005,14.4879732 C4.51071872,14.4879732 1.11811756,17.8806528 1.11811756,22.0505873 C1.11811756,26.2205217 4.51071872,29.6132013 8.68081005,29.6132013 C11.4618295,29.6132013 14.0120255,28.0918942 15.3362085,25.642744 C15.4407836,25.4492799 15.6820908,25.3773845 15.8755548,25.4816982 C16.0690189,25.5862734 16.1409143,25.827842 16.0363392,26.0213061 C14.5730712,28.7279726 11.7545093,30.4092797 8.68081005,30.4092797 C4.07179064,30.4092797 0.322065304,26.6597374 0.322065304,22.0505873 C0.322065304,17.4416986 4.07179064,13.6918948 8.68081005,13.6918948 L30.1746392,13.6918948 C34.7837893,13.6918948 38.5335931,17.4416986 38.5335931,22.0505873 C38.5335931,26.6597374 34.7837893,30.4092797 30.1746392,30.4092797"/>
    <path fill="#0A0B09" d="M22.2141167 21.6526788C21.1166004 21.6526788 20.22379 22.5454892 20.22379 23.6427441 20.22379 24.7399989 21.1166004 25.6330708 22.2141167 25.6330708 22.4894108 25.6330708 22.7571232 25.5771231 23.0094108 25.4670577 23.7351624 25.150195 24.2041819 24.4341166 24.2041819 23.6427441 24.2041819 22.5454892 23.3113715 21.6526788 22.2141167 21.6526788zM22.2141167 26.4288877C20.6776461 26.4288877 19.4277116 25.1789531 19.4277116 23.6427441 19.4277116 22.106535 20.6776461 20.8566004 22.2141167 20.8566004 23.7503258 20.8566004 25.0002603 22.106535 25.0002603 23.6427441 25.0002603 24.7504564 24.3437898 25.7530708 23.3278421 26.1967309 22.9741166 26.3509792 22.5994761 26.4288877 22.2141167 26.4288877L22.2141167 26.4288877zM16.6415679 21.6526788C15.5440516 21.6526788 14.6512412 22.5454892 14.6512412 23.6427441 14.6512412 24.4338551 15.1199993 25.150195 15.8457509 25.4673191 16.0982999 25.5771231 16.3662738 25.6330708 16.6415679 25.6330708 17.7388227 25.6330708 18.6316332 24.7399989 18.6316332 23.6427441 18.6316332 22.5454892 17.7388227 21.6526788 16.6415679 21.6526788zM16.6415679 26.4288877C16.2564699 26.4288877 15.8818294 26.3509792 15.527581 26.1969923 14.5113719 25.7528093 13.8554242 24.750195 13.8554242 23.6427441 13.8554242 22.106535 15.1050974 20.8566004 16.6415679 20.8566004 18.177777 20.8566004 19.4277116 22.106535 19.4277116 23.6427441 19.4277116 25.1789531 18.177777 26.4288877 16.6415679 26.4288877L16.6415679 26.4288877zM7.48669245 24.8369924C7.26687547 24.8369924 7.08865325 24.6586917 7.08865325 24.4388225L7.08865325 18.8662737C7.08865325 18.6464044 7.26687547 18.4683652 7.48669245 18.4683652 7.70653558 18.4683652 7.88473165 18.6464044 7.88473165 18.8662737L7.88473165 24.4388225C7.88473165 24.6586917 7.70653558 24.8369924 7.48669245 24.8369924"/>
    <path fill="#0A0B09" d="M10.2729407 22.0505873L4.7004442 22.0505873C4.48070565 22.0505873 4.30240501 21.8725481 4.30240501 21.6526788 4.30240501 21.4328095 4.48070565 21.2545089 4.7004442 21.2545089L10.2729407 21.2545089C10.4927838 21.2545089 10.6709799 21.4328095 10.6709799 21.6526788 10.6709799 21.8725481 10.4927838 22.0505873 10.2729407 22.0505873M19.8258815 9.71168582C19.667973 9.71168582 19.5184305 9.61699302 19.4562083 9.46143747 19.2792148 9.01918912 17.78196 5.11401281 19.6478423 4.18101939 21.1471886 3.43145079 21.8159468 2.73022207 21.8159468.556758104 21.8159468.336862689 21.9942474.158718905 22.2141167.158718905 22.4337245.158718905 22.6120252.336862689 22.6120252.556758104 22.6120252 3.12005211 21.7335938 4.02820894 20.0039207 4.89315008 19.0483652 5.37077097 19.7202606 7.97790812 20.1952932 9.16564663 20.2768618 9.36980349 20.1777769 9.60148975 19.9738553 9.68308452 19.9252279 9.70248321 19.8750318 9.71168582 19.8258815 9.71168582M25.3981688 17.6722868L14.2533327 17.6722868C14.0334634 17.6722868 13.8554242 17.4939861 13.8554242 17.2741169 13.8554242 17.0542476 14.0334634 16.8762084 14.2533327 16.8762084L25.3981688 16.8762084C25.6182995 16.8762084 25.7963387 17.0542476 25.7963387 17.2741169 25.7963387 17.4939861 25.6182995 17.6722868 25.3981688 17.6722868"/>
  </g>
</svg>
