<?xml version="1.0" encoding="UTF-8" standalone="no"?>
<svg width="31px" height="22px" viewBox="0 0 31 22" version="1.1" xmlns="http://www.w3.org/2000/svg" xmlns:xlink="http://www.w3.org/1999/xlink">
    <!-- Generator: Sketch 41.2 (35397) - http://www.bohemiancoding.com/sketch -->
    <title>Youtube</title>
    <desc>Created with Sketch.</desc>
    <defs></defs>
    <g id="Symbols" stroke="none" stroke-width="1" fill="none" fill-rule="evenodd">
        <g id="footer" transform="translate(-1143.000000, -120.000000)">
            <g id="RRSS">
                <g transform="translate(1003.000000, 118.000000)">
                    <g id="Youtube" transform="translate(140.200000, 2.000000)">
                        <g id="YouTube-icon-full_color">
                            <g id="Group">
                                <polygon id="Triangle" fill="#FFFFFF" points="11.9061584 14.4907142 20 10.2789822 11.9061584 6.03779759"></polygon>
                                <g>
                                    <polygon id="The_Sharpness" fill="#420000" opacity="0.12" points="11.9061584 6.03779759 19.0029326 10.7973493 20 10.2789822"></polygon>
                                    <g id="Lozenge" fill="#427314">
                                        <path d="M29.6774194,4.57399984 C29.6774194,4.57399984 29.3841642,2.50053178 28.4868035,1.58749898 C27.3489736,0.38877526 26.0703812,0.382884726 25.4868035,0.312198315 C21.2932551,0.00883580136 15.0058651,0.00883580136 15.0058651,0.00883580136 L14.9941349,0.00883580136 C14.9941349,0.00883580136 8.70674487,0.00883580136 4.51319648,0.312198315 C3.92961877,0.382884726 2.65102639,0.38877526 1.51319648,1.58749898 C0.615835777,2.50053178 0.322580645,4.57399984 0.322580645,4.57399984 C0.322580645,4.57399984 0.0234604106,7.00679048 0.0234604106,9.44252638 L0.0234604106,11.7251084 C0.0234604106,14.1608443 0.322580645,16.593635 0.322580645,16.593635 C0.322580645,16.593635 0.615835777,18.667103 1.51319648,19.5801358 C2.65395894,20.7788595 4.14956012,20.7405711 4.81524927,20.8672175 C7.2111437,21.0969484 15,21.1705801 15,21.1705801 C15,21.1705801 21.2932551,21.1617443 25.4868035,20.8554365 C26.0733138,20.7847501 27.3489736,20.7788595 28.4868035,19.5801358 C29.3841642,18.667103 29.6774194,16.593635 29.6774194,16.593635 C29.6774194,16.593635 29.9765396,14.157899 29.9765396,11.7251084 L29.9765396,9.44252638 C29.9765396,7.00679048 29.6774194,4.57399984 29.6774194,4.57399984 L29.6774194,4.57399984 Z M11.9061584,14.4907142 L11.9061584,6.03779759 L20,10.2789822 L11.9061584,14.4907142 L11.9061584,14.4907142 Z" id="Shape"></path>
                                    </g>
                                </g>
                            </g>
                        </g>
                    </g>
                </g>
            </g>
        </g>
    </g>
</svg>