<svg xmlns="http://www.w3.org/2000/svg" width="31" height="22" viewBox="0 0 31 22">
    <g fill="none" fill-rule="evenodd">
        <path fill="#FFF" d="M11.906 14.491L20 10.279 11.906 6.038z" transform="translate(.2)"/>
        <path fill="#707070" d="M29.677 4.574s-.293-2.073-1.19-2.987C27.349.39 26.07.383 25.487.312 21.293.01 15.006.01 15.006.01h-.012s-6.287 0-10.48.303c-.584.07-1.863.077-3 1.275C.615 2.501.322 4.574.322 4.574s-.3 2.433-.3 4.869v2.282c0 2.436.3 4.869.3 4.869s.293 2.073 1.19 2.986c1.141 1.199 2.637 1.16 3.302 1.287 2.396.23 10.185.304 10.185.304s6.293-.01 10.487-.316c.586-.07 1.862-.076 3-1.275.897-.913 1.19-2.986 1.19-2.986s.3-2.436.3-4.869V9.443c0-2.436-.3-4.869-.3-4.869zm-17.77 9.917V6.038L20 10.279l-8.094 4.212z" transform="translate(.2)"/>
    </g>
</svg>
